<?xml version="1.0" standalone="no"?>
<!DOCTYPE svg PUBLIC "-//W3C//DTD SVG 20010904//EN"
 "http://www.w3.org/TR/2001/REC-SVG-20010904/DTD/svg10.dtd">
<svg version="1.0" xmlns="http://www.w3.org/2000/svg"
 width="1340.000000pt" height="937.000000pt" viewBox="0 0 1340.000000 937.000000"
 preserveAspectRatio="xMidYMid meet">
<metadata>
Created by potrace 1.16, written by Peter Selinger 2001-2019
</metadata>
<g transform="translate(0.000000,937.000000) scale(0.100000,-0.100000)"
fill="#000000" stroke="none">
<path d="M6263 9337 c-84 -5 -153 -14 -153 -18 0 -5 -52 -9 -115 -9 -115 0
-353 -22 -430 -39 -22 -5 -93 -17 -157 -27 -65 -9 -118 -21 -118 -25 0 -5 -13
-9 -30 -9 -16 0 -30 -4 -30 -9 0 -5 -28 -14 -62 -19 -141 -24 -222 -42 -227
-51 -4 -5 -30 -13 -59 -17 -28 -3 -52 -10 -52 -14 0 -5 -27 -11 -60 -15 -33
-4 -60 -10 -60 -14 0 -3 -24 -12 -52 -19 -29 -7 -54 -17 -56 -22 -2 -5 -20
-12 -40 -15 -20 -4 -54 -13 -75 -21 -20 -8 -49 -14 -62 -14 -14 0 -25 -4 -25
-10 0 -5 -18 -13 -40 -16 -22 -4 -40 -12 -40 -19 0 -15 -22 -25 -55 -25 -13 0
-25 -5 -27 -10 -2 -6 -21 -13 -43 -17 -22 -3 -46 -12 -53 -20 -7 -7 -27 -13
-43 -13 -19 0 -29 -5 -29 -15 0 -9 -9 -15 -24 -15 -32 0 -87 -20 -81 -30 3 -4
-5 -6 -17 -2 -13 3 -19 1 -15 -5 5 -7 -1 -9 -15 -5 -15 3 -19 2 -14 -7 6 -8
-2 -11 -28 -8 -20 2 -36 0 -36 -5 0 -6 -6 -8 -14 -5 -17 7 -26 -32 -19 -83 7
-59 25 -120 34 -120 5 0 7 -10 4 -22 -3 -13 -1 -45 4 -73 5 -27 15 -81 22
-120 7 -38 16 -73 21 -76 5 -3 13 -36 18 -72 9 -76 24 -145 51 -234 11 -34 19
-71 19 -83 0 -11 5 -20 10 -20 6 0 10 4 10 9 0 5 6 11 13 14 10 4 13 -2 9 -20
-3 -16 -1 -24 5 -20 6 4 15 -5 22 -19 9 -21 17 -25 37 -21 15 3 23 0 21 -7 -4
-13 17 -36 33 -36 6 0 8 -4 5 -10 -7 -12 40 -24 56 -14 9 5 10 2 6 -9 -4 -12
3 -19 28 -28 21 -8 31 -17 28 -26 -5 -14 32 -19 40 -5 2 4 2 1 1 -5 -2 -7 4
-13 12 -13 8 0 12 -4 9 -10 -3 -5 6 -12 20 -16 13 -3 22 -11 18 -17 -4 -6 4
-8 20 -5 15 3 24 1 21 -3 -3 -5 7 -11 21 -15 16 -4 24 -12 21 -19 -5 -14 14
-25 45 -25 11 0 17 -4 14 -10 -3 -5 6 -12 20 -16 14 -3 24 -9 21 -11 -9 -9 22
-33 43 -33 12 0 20 -6 19 -12 -2 -8 7 -13 20 -12 15 0 21 -4 18 -13 -4 -9 5
-16 25 -20 16 -3 28 -8 25 -11 -8 -8 21 -32 39 -32 9 0 13 -5 10 -10 -4 -6 7
-13 24 -16 17 -4 28 -10 26 -14 -7 -11 32 -23 46 -14 7 4 10 1 7 -7 -6 -17 15
-39 37 -39 9 0 13 -4 10 -10 -3 -5 6 -12 20 -16 13 -3 23 -10 20 -15 -3 -4 11
-11 30 -15 20 -3 34 -9 31 -11 -7 -7 20 -33 34 -33 6 0 9 -4 5 -9 -3 -6 10
-13 30 -17 19 -3 32 -10 30 -15 -3 -5 5 -11 19 -15 15 -3 23 -11 20 -19 -4 -8
6 -16 25 -20 19 -4 28 -11 25 -17 -5 -7 1 -9 15 -5 13 3 20 3 17 0 -9 -9 35
-43 55 -43 12 0 16 -5 13 -15 -7 -17 21 -21 29 -5 3 6 4 5 3 -2 -4 -17 32 -48
56 -48 12 0 16 -4 12 -12 -5 -8 0 -9 14 -6 12 4 20 2 17 -3 -3 -4 6 -11 20
-15 16 -4 24 -12 21 -20 -3 -8 6 -15 25 -19 17 -4 26 -11 23 -17 -5 -7 0 -9
14 -6 12 4 20 2 16 -3 -3 -5 2 -9 11 -9 9 0 14 -4 11 -9 -4 -5 8 -12 25 -16
22 -5 29 -11 25 -22 -5 -12 -1 -14 14 -10 11 3 18 1 14 -4 -3 -5 2 -9 11 -9 9
0 14 -4 11 -9 -4 -5 7 -12 24 -16 18 -4 27 -11 24 -17 -5 -7 0 -9 14 -6 15 4
19 2 15 -8 -3 -8 0 -14 7 -14 6 0 8 -5 4 -11 -5 -8 1 -10 19 -7 15 3 24 1 21
-3 -3 -5 2 -9 11 -9 10 0 13 -5 9 -12 -5 -7 0 -9 14 -6 13 4 20 2 19 -6 -1 -6
10 -11 26 -11 22 1 26 -3 21 -17 -4 -14 1 -20 25 -24 17 -4 29 -11 28 -18 -1
-6 10 -11 25 -11 14 1 24 -3 22 -7 -3 -4 2 -8 11 -8 9 0 14 -4 11 -9 -3 -5 6
-12 20 -15 18 -5 24 -11 20 -23 -5 -12 -1 -14 19 -11 13 3 22 1 19 -3 -3 -5 2
-9 11 -9 9 0 14 -4 11 -9 -3 -5 6 -12 19 -15 16 -4 23 -11 19 -18 -5 -7 2 -9
19 -6 15 3 24 1 21 -3 -3 -5 2 -9 11 -9 12 0 15 -5 11 -16 -5 -13 -2 -15 14
-11 11 3 18 1 14 -4 -3 -5 0 -9 6 -9 6 0 8 -5 4 -11 -5 -8 1 -10 20 -7 15 3
24 3 22 0 -3 -2 9 -18 26 -34 22 -21 39 -28 55 -25 18 3 23 1 19 -9 -3 -9 4
-16 19 -20 14 -3 22 -10 20 -15 -8 -11 41 -23 56 -13 9 5 10 2 6 -11 -12 -30
63 -79 92 -60 6 3 8 0 5 -8 -4 -10 6 -19 30 -27 20 -6 36 -16 36 -21 0 -16
120 -11 136 6 9 8 13 19 10 23 -3 5 5 8 17 8 15 -1 22 5 21 16 -1 10 3 15 8
12 14 -9 60 5 53 16 -3 6 -1 10 5 10 15 0 41 26 33 34 -4 3 4 6 16 6 12 0 20
4 17 9 -4 5 4 7 16 3 13 -3 19 -1 15 5 -4 6 4 14 18 17 14 4 23 11 20 16 -3 6
4 10 15 10 15 0 20 5 17 14 -4 10 0 12 15 8 13 -3 19 -1 15 5 -4 6 4 14 18 17
14 4 23 11 20 16 -3 6 3 10 15 10 12 0 19 4 16 9 -4 5 3 7 14 4 15 -4 19 -2
15 10 -4 10 2 17 20 21 14 4 23 11 20 16 -3 6 3 10 15 10 12 0 19 4 16 9 -4 5
4 7 16 3 14 -3 19 -1 14 6 -4 7 3 14 18 18 14 3 23 11 20 19 -3 8 7 15 26 19
17 3 29 10 25 16 -3 5 1 10 10 10 9 0 14 4 11 9 -4 5 4 7 16 3 13 -3 19 -1 15
5 -4 6 6 13 23 16 21 5 28 11 24 22 -4 10 0 15 11 15 9 0 14 4 11 9 -4 5 4 7
16 3 14 -3 19 -2 14 6 -4 7 -1 12 8 12 24 0 66 22 60 31 -3 5 5 9 18 9 29 0
52 15 44 28 -3 5 6 13 19 16 14 4 23 11 20 16 -3 6 1 10 10 10 9 0 14 4 11 9
-3 4 6 6 21 3 18 -3 24 -1 19 7 -4 6 -2 11 4 11 15 0 41 26 33 34 -4 3 1 6 11
6 10 0 14 5 10 12 -4 7 -3 8 5 4 15 -10 64 2 56 13 -2 5 6 12 19 15 17 4 23
11 19 24 -3 14 2 18 24 17 22 0 27 4 25 19 -2 11 1 15 7 11 17 -10 51 4 45 18
-3 9 5 13 23 12 20 0 27 5 26 15 -2 11 12 20 42 29 25 7 42 17 39 22 -3 5 2 9
11 9 9 0 14 4 11 9 -4 5 4 7 16 3 14 -3 19 -1 14 6 -3 6 6 13 25 17 20 5 29
11 25 21 -3 8 1 14 10 14 8 0 13 4 10 9 -4 5 4 7 16 3 14 -3 19 -1 14 6 -3 6
6 13 24 17 17 4 28 11 24 16 -3 5 2 9 11 9 11 0 15 5 12 14 -4 10 0 12 15 8
13 -3 19 -1 15 5 -4 6 6 13 24 17 17 3 28 10 25 15 -3 5 5 12 18 15 18 4 23
11 20 28 -2 13 -2 17 2 11 3 -7 12 -13 21 -13 16 0 45 25 37 33 -3 2 6 7 20
11 18 4 24 11 19 23 -4 11 -3 14 6 9 16 -10 63 2 56 14 -3 6 -1 10 5 10 16 0
37 23 33 35 -2 6 9 11 24 10 22 0 27 4 25 19 -2 11 1 15 7 11 21 -13 49 5 45
28 -2 12 -2 16 2 10 13 -29 50 -12 45 20 0 4 6 7 14 7 23 0 65 22 59 31 -3 5
4 9 15 9 11 0 26 7 35 15 8 8 20 15 26 15 6 0 9 4 6 9 -4 5 8 12 25 16 17 4
28 10 24 13 -3 4 9 12 27 18 23 8 33 17 32 31 0 14 5 18 21 16 11 -3 31 5 44
16 13 12 28 21 34 21 5 0 6 7 3 16 -3 9 -2 12 5 9 18 -12 59 4 53 20 -4 11 5
16 35 21 22 4 38 10 35 15 -3 5 0 9 6 9 6 0 8 5 5 10 -3 6 1 10 11 10 13 0 14
3 5 14 -9 11 -6 12 14 8 21 -4 25 -1 25 22 0 18 4 24 15 20 9 -4 16 2 19 18 3
12 7 34 10 48 7 34 26 117 36 160 5 19 14 63 21 98 6 34 15 62 19 62 4 0 10
28 13 63 3 34 13 89 21 122 18 67 21 217 6 246 -6 10 -21 19 -33 20 -12 0 -16
3 -9 6 20 8 14 20 -13 27 -14 4 -25 11 -25 16 0 5 -18 13 -40 16 -22 4 -40 10
-40 14 0 4 -12 11 -27 15 -15 3 -30 10 -33 13 -7 9 -98 46 -182 73 -38 12 -68
25 -68 29 0 11 -57 30 -86 30 -13 0 -24 4 -24 9 0 5 -15 11 -32 13 -36 6 -130
39 -138 50 -3 3 -32 13 -65 22 -33 9 -85 25 -115 36 -30 11 -77 23 -105 26
-27 4 -53 11 -56 16 -4 6 -42 17 -85 25 -44 8 -110 22 -149 30 -38 8 -83 17
-100 20 -16 3 -32 9 -35 12 -3 4 -57 15 -120 24 -63 10 -137 22 -165 27 -27 6
-113 15 -190 21 -205 16 -235 20 -235 29 0 20 -883 34 -1127 17z m797 -167
c254 -14 465 -33 470 -41 3 -5 60 -13 125 -19 66 -6 145 -15 175 -20 30 -5
118 -20 195 -32 77 -12 146 -28 153 -35 7 -7 23 -13 35 -13 12 0 85 -16 162
-35 77 -19 150 -35 162 -35 13 0 23 -4 23 -10 0 -5 12 -12 28 -15 80 -17 208
-51 212 -56 3 -3 22 -9 43 -13 20 -4 37 -10 37 -15 0 -4 21 -14 48 -23 97 -33
167 -61 172 -69 3 -5 44 -22 90 -39 47 -17 99 -36 115 -42 17 -6 32 -14 35
-18 3 -4 15 -12 28 -19 33 -18 33 -19 -35 -386 -3 -16 -9 -32 -13 -35 -5 -3
-13 -34 -20 -70 -26 -147 -32 -170 -41 -165 -5 4 -9 -1 -9 -9 0 -9 -5 -16 -11
-16 -15 0 -80 -46 -73 -52 2 -3 -7 -9 -21 -12 -15 -4 -37 -17 -50 -31 -13 -13
-38 -26 -55 -30 -16 -4 -30 -10 -30 -15 0 -5 -9 -12 -21 -15 -14 -5 -19 -13
-16 -26 3 -10 1 -17 -3 -14 -13 8 -61 -6 -55 -15 3 -4 -6 -11 -20 -14 -14 -4
-25 -10 -25 -15 0 -5 -13 -12 -29 -16 -19 -4 -28 -11 -25 -19 3 -8 -5 -16 -20
-20 -18 -4 -24 -11 -19 -23 4 -11 3 -14 -5 -9 -16 10 -84 -13 -77 -25 4 -5 -1
-9 -9 -9 -8 0 -14 -6 -12 -12 1 -7 1 -10 -1 -5 -8 13 -35 7 -30 -7 4 -9 -4
-16 -24 -20 -17 -3 -28 -10 -25 -15 3 -5 -5 -12 -18 -15 -18 -4 -23 -11 -20
-28 2 -13 2 -17 -2 -10 -3 6 -12 12 -21 12 -16 0 -45 -25 -37 -33 3 -2 -7 -8
-21 -11 -14 -4 -24 -10 -21 -15 3 -4 -6 -6 -21 -3 -16 3 -24 1 -20 -5 4 -6 -4
-14 -18 -17 -16 -4 -22 -11 -19 -21 4 -10 0 -15 -11 -15 -9 0 -14 -4 -11 -9 3
-4 -6 -6 -21 -3 -16 3 -24 1 -20 -5 4 -6 -5 -14 -18 -17 -14 -4 -23 -11 -20
-16 3 -6 -1 -10 -10 -10 -9 0 -14 -4 -11 -9 3 -4 -6 -6 -19 -3 -20 3 -24 1
-19 -12 3 -9 1 -16 -6 -16 -6 0 -8 -5 -4 -12 4 -7 3 -8 -5 -4 -16 10 -53 -3
-48 -18 3 -7 -5 -11 -22 -11 -19 0 -26 -5 -25 -17 1 -10 -2 -15 -7 -12 -14 8
-49 -6 -49 -21 0 -7 -11 -16 -25 -19 -17 -4 -23 -11 -18 -23 4 -11 3 -14 -5
-9 -16 10 -54 -3 -47 -15 4 -5 -1 -9 -10 -9 -22 0 -43 -22 -37 -39 3 -8 0 -11
-7 -7 -14 9 -53 -3 -46 -14 2 -4 -9 -10 -26 -14 -17 -3 -28 -10 -24 -16 3 -5
-1 -10 -10 -10 -11 0 -15 -5 -12 -14 4 -10 0 -12 -15 -8 -13 3 -19 1 -15 -5 4
-6 -6 -13 -24 -17 -17 -3 -28 -10 -24 -16 3 -5 -1 -10 -10 -10 -9 0 -14 -4
-11 -9 4 -5 -4 -7 -16 -3 -14 3 -19 2 -14 -6 4 -7 1 -12 -9 -12 -19 0 -47 -25
-38 -34 4 -3 -1 -6 -11 -6 -9 0 -15 -4 -12 -9 3 -4 -7 -6 -22 -4 -19 3 -23 2
-14 -5 10 -7 5 -11 -18 -15 -17 -4 -29 -11 -25 -17 3 -5 -1 -10 -10 -10 -10 0
-15 -6 -12 -13 4 -10 -2 -13 -21 -10 -20 3 -23 2 -13 -5 10 -8 6 -11 -18 -17
-17 -4 -29 -11 -25 -16 3 -5 -2 -9 -11 -9 -9 0 -14 -4 -11 -8 2 -4 -8 -8 -22
-7 -22 0 -27 -4 -25 -23 2 -14 -1 -21 -7 -17 -14 8 -52 -4 -45 -15 3 -5 -8
-11 -24 -15 -22 -5 -28 -11 -24 -22 4 -11 2 -14 -5 -9 -18 11 -54 -4 -48 -19
3 -9 -5 -16 -24 -20 -21 -5 -27 -11 -23 -22 4 -11 3 -14 -6 -9 -15 10 -73 -13
-65 -25 3 -5 -2 -9 -11 -9 -22 0 -43 -22 -37 -39 3 -8 0 -11 -7 -7 -14 9 -53
-3 -46 -14 2 -4 -8 -10 -24 -13 -24 -5 -29 -10 -25 -29 2 -13 2 -17 -2 -10 -3
6 -10 12 -16 12 -12 0 -39 -26 -32 -32 3 -3 -9 -8 -25 -11 -24 -5 -29 -10 -24
-23 4 -12 3 -15 -6 -10 -14 9 -71 -15 -71 -30 0 -17 -24 -24 -64 -17 -23 4
-33 10 -29 19 3 8 -5 16 -21 20 -14 3 -23 10 -20 15 3 5 -9 12 -26 16 -19 3
-27 9 -20 13 8 5 2 10 -15 14 -14 4 -31 4 -37 0 -7 -5 -9 0 -5 15 4 18 0 23
-25 28 -18 3 -25 9 -18 13 8 5 2 10 -15 14 -17 4 -33 2 -43 -6 -13 -11 -14
-10 -4 9 10 19 9 23 -8 28 -11 3 -20 11 -20 16 0 5 -9 9 -21 9 -13 0 -18 4
-13 12 5 8 0 9 -14 6 -12 -4 -20 -2 -16 3 3 5 -2 9 -11 9 -9 0 -14 4 -10 9 7
12 -61 35 -76 25 -8 -4 -9 0 -4 15 5 18 2 22 -25 28 -19 3 -27 9 -20 13 8 5 2
10 -15 14 -14 4 -31 4 -37 0 -7 -4 -8 -3 -4 4 4 7 1 12 -9 12 -9 0 -13 5 -10
10 4 6 -8 13 -25 16 -22 5 -29 11 -25 22 4 11 0 13 -15 9 -11 -3 -18 -1 -14 4
3 5 -2 9 -11 9 -9 0 -13 5 -10 10 4 6 -7 13 -24 16 -18 4 -28 11 -24 17 4 6
-2 8 -15 5 -15 -4 -19 -2 -15 8 3 9 -1 14 -12 14 -9 0 -13 5 -10 10 4 6 -7 13
-24 16 -18 4 -28 11 -24 17 4 6 -2 8 -15 5 -12 -4 -20 -2 -16 3 3 5 -2 9 -11
9 -9 0 -13 5 -10 10 3 6 -1 10 -9 10 -9 0 -16 5 -16 10 0 6 -7 10 -16 10 -9 0
-12 5 -8 12 5 8 0 9 -14 6 -12 -4 -20 -2 -16 3 3 5 0 9 -6 9 -6 0 -8 5 -4 11
5 8 -1 10 -19 7 -15 -3 -24 -1 -21 3 3 5 -3 9 -12 9 -10 0 -15 3 -11 6 8 8
-18 34 -33 34 -6 0 -8 5 -4 11 5 8 -1 10 -19 7 -15 -3 -24 -1 -21 3 3 5 -2 9
-11 9 -9 0 -13 4 -10 10 3 5 -6 12 -20 16 -13 3 -22 11 -18 17 4 6 -3 8 -20 5
-18 -4 -24 -1 -20 9 3 7 -2 13 -12 13 -9 0 -13 4 -10 10 3 5 -6 12 -20 16 -13
3 -22 10 -20 15 7 11 -40 23 -56 14 -7 -5 -9 -1 -5 12 5 15 0 23 -19 31 -14 7
-34 12 -43 12 -15 0 -15 2 -2 11 12 8 9 10 -12 6 -15 -2 -25 0 -22 4 3 5 -2 9
-11 9 -9 0 -13 5 -10 10 4 6 -7 13 -24 16 -32 7 -40 18 -18 28 6 3 0 4 -15 2
-15 -1 -25 1 -22 5 3 5 0 9 -6 9 -6 0 -8 5 -4 12 5 8 0 9 -14 6 -12 -4 -20 -2
-16 3 3 5 -5 9 -18 9 -17 0 -19 3 -9 9 10 6 5 11 -18 16 -24 5 -31 11 -27 22
5 12 1 14 -14 10 -11 -3 -18 -1 -14 4 3 5 -4 9 -16 9 -12 0 -18 4 -15 10 3 5
-6 12 -20 16 -14 3 -22 11 -18 17 4 6 -2 8 -15 5 -12 -4 -20 -2 -16 3 3 5 -2
9 -10 9 -9 0 -16 5 -16 10 0 6 -7 10 -16 10 -8 0 -12 4 -9 10 3 5 -6 12 -20
16 -13 3 -22 11 -18 17 4 6 -4 8 -20 5 -15 -3 -24 -1 -21 3 3 5 -2 9 -10 9 -9
0 -13 6 -10 15 4 9 -3 16 -20 21 -14 3 -23 11 -19 17 4 6 -4 8 -20 5 -15 -3
-24 -1 -21 3 3 5 -2 9 -11 9 -9 0 -13 4 -10 10 3 5 -5 12 -19 16 -16 4 -23 11
-19 20 5 15 -31 21 -40 7 -2 -5 -2 -2 -1 4 2 7 -8 16 -21 19 -14 3 -22 10 -20
15 7 11 -40 23 -55 14 -7 -4 -10 0 -8 11 2 14 -3 19 -20 18 -18 -1 -22 4 -19
18 4 13 -2 20 -18 24 -13 3 -29 3 -35 -1 -7 -4 -10 0 -8 11 2 14 -3 19 -20 18
-15 0 -21 4 -18 13 6 15 -36 29 -54 18 -8 -5 -11 1 -8 16 2 19 -1 24 -20 23
-14 0 -21 4 -18 11 2 7 -8 19 -22 26 -62 32 -81 70 -99 199 -3 25 -9 47 -13
50 -3 3 -14 43 -24 90 -10 47 -21 103 -26 125 -5 22 -16 79 -26 128 -9 48 -20
87 -25 87 -5 0 -9 5 -9 11 0 6 7 9 15 5 8 -3 15 -1 15 4 0 5 9 7 21 5 15 -3
23 2 26 15 3 11 9 17 14 14 5 -3 9 -1 9 4 0 5 17 12 38 16 20 3 50 13 66 21
15 8 37 15 47 15 11 0 19 5 19 10 0 6 9 10 19 10 11 0 21 4 23 10 4 12 131 61
176 67 17 3 32 11 32 18 0 7 12 15 28 18 15 3 61 15 102 26 41 12 109 28 150
36 41 9 77 19 80 24 5 8 39 16 190 43 36 6 67 14 70 18 3 3 34 11 69 18 36 6
67 15 70 20 3 5 26 12 51 16 25 3 65 11 90 16 74 16 271 48 338 55 34 4 62 10
62 14 0 4 111 13 248 21 136 7 288 16 337 20 131 10 508 10 675 0z"/>
<path d="M6830 8329 c-1568 -5 -1687 -8 -1730 -34 -4 -3 -38 -6 -74 -7 -47 -1
-66 -5 -66 -15 0 -7 7 -13 15 -13 8 0 15 -7 15 -16 0 -8 4 -13 9 -9 5 3 16 -2
24 -10 19 -19 120 -57 138 -52 8 2 11 2 7 0 -13 -8 -9 -33 5 -33 8 0 25 -9 38
-21 15 -13 32 -18 49 -15 14 3 19 3 13 0 -22 -9 -14 -19 24 -33 20 -8 48 -25
61 -38 14 -14 32 -23 43 -20 12 3 16 0 12 -9 -3 -8 5 -16 21 -20 14 -3 23 -10
20 -15 -3 -5 2 -9 10 -9 9 0 16 -4 16 -10 0 -5 7 -10 16 -10 8 0 12 -4 9 -10
-3 -5 6 -12 20 -16 13 -3 22 -11 18 -17 -4 -6 4 -8 20 -5 15 3 24 1 21 -3 -3
-5 2 -9 10 -9 9 0 13 -6 10 -13 -5 -14 34 -37 64 -37 15 0 15 -2 2 -11 -12 -8
-9 -10 12 -6 15 2 25 0 22 -4 -3 -5 2 -9 11 -9 9 0 13 -5 10 -10 -4 -6 7 -13
24 -16 32 -7 40 -18 19 -28 -7 -3 -1 -4 14 -2 15 1 25 -1 22 -5 -3 -5 0 -9 6
-9 6 0 8 -5 4 -12 -5 -8 0 -9 14 -6 12 4 20 2 16 -3 -3 -5 4 -9 16 -9 12 0 18
-4 15 -10 -3 -5 6 -12 20 -16 18 -4 24 -11 20 -21 -4 -12 0 -14 15 -10 11 3
18 1 14 -4 -3 -5 4 -9 16 -9 12 0 18 -4 15 -10 -3 -5 6 -12 20 -16 13 -3 22
-10 20 -15 -8 -11 41 -23 56 -13 9 5 11 1 7 -14 -5 -17 -1 -23 18 -28 13 -3
21 -10 19 -15 -8 -11 40 -23 56 -14 7 5 10 3 7 -6 -5 -15 14 -39 32 -39 6 0 8
-4 5 -10 -7 -12 40 -25 55 -15 7 4 10 0 8 -11 -2 -14 3 -19 20 -18 12 0 21 -4
19 -10 -9 -27 46 -49 57 -23 3 6 4 1 3 -13 -2 -20 2 -25 21 -24 15 0 21 -4 18
-13 -4 -9 5 -16 25 -20 22 -4 27 -8 17 -14 -10 -7 -9 -9 5 -9 9 0 17 -4 17
-10 0 -14 27 -12 34 3 3 6 3 2 0 -10 -3 -16 1 -23 16 -28 11 -3 20 -10 20 -14
0 -4 27 -16 60 -27 33 -10 60 -22 60 -26 0 -5 14 -8 30 -8 17 0 30 4 30 8 0 5
18 15 40 22 22 7 40 17 40 21 0 5 15 12 33 17 26 7 32 14 30 33 -1 13 1 18 3
12 3 -7 10 -13 16 -13 14 0 40 28 34 38 -2 4 8 8 22 7 20 0 27 5 26 17 -1 10
2 15 7 12 14 -8 50 6 44 17 -4 5 1 9 10 9 22 0 43 22 37 39 -3 8 0 11 7 7 14
-9 53 3 46 14 -2 4 8 10 24 13 24 5 29 10 25 29 -2 13 -2 17 2 11 3 -7 10 -13
16 -13 12 0 39 26 32 32 -3 3 9 8 26 12 18 3 29 10 25 16 -3 5 1 10 10 10 9 0
14 4 11 9 -4 5 3 7 14 4 15 -4 19 -2 15 9 -4 11 3 17 25 22 17 3 29 10 25 16
-3 5 1 10 10 10 9 0 14 4 11 9 -4 5 4 7 16 3 13 -3 19 -1 15 5 -4 6 6 13 23
16 21 5 28 11 24 22 -4 10 0 15 11 15 9 0 14 4 11 9 -4 5 4 7 16 3 14 -3 19
-2 14 6 -4 7 -2 12 4 12 6 0 8 5 4 12 -4 7 -3 8 5 4 16 -10 64 2 56 13 -3 5 8
12 25 16 31 7 39 20 18 28 -7 3 -3 6 9 6 30 1 54 12 48 21 -3 5 9 11 26 15 23
5 28 9 18 16 -10 6 -7 9 11 9 31 0 55 15 46 28 -3 6 7 13 25 17 23 5 28 9 18
16 -10 6 -8 9 9 9 15 0 21 4 16 12 -4 7 -3 8 5 4 17 -11 51 3 45 18 -3 9 6 15
25 19 24 5 29 10 24 23 -4 12 -3 15 5 10 7 -4 28 -2 47 5 23 9 31 16 22 21 -8
5 -4 8 10 8 13 0 21 5 19 13 -1 6 -1 9 1 5 8 -15 35 -8 30 6 -4 10 4 17 25 21
19 5 26 10 19 15 -8 4 -1 10 19 13 17 4 29 11 25 17 -3 5 1 10 11 10 11 0 15
6 11 20 -3 11 -1 17 5 14 14 -9 60 5 53 16 -3 6 1 10 10 10 9 0 14 4 11 9 -3
5 5 12 19 15 14 4 25 11 25 16 0 6 5 10 10 10 6 0 23 12 37 26 14 14 39 31 54
36 16 5 29 16 29 24 0 8 -1 13 -2 12 -2 -2 -734 -5 -1628 -9z m1091 -168 c-7
-5 -11 -13 -7 -19 4 -6 -2 -8 -16 -4 -14 3 -19 1 -14 -6 3 -6 -6 -13 -25 -17
-23 -5 -28 -9 -18 -16 10 -6 8 -9 -9 -9 -13 0 -21 -4 -18 -9 4 -5 -4 -7 -16
-3 -14 3 -19 2 -14 -6 4 -7 1 -12 -8 -12 -9 0 -16 -4 -16 -10 0 -5 -8 -10 -17
-10 -15 0 -16 -2 -3 -10 12 -8 10 -10 -8 -10 -13 0 -21 -4 -18 -9 4 -5 -4 -7
-16 -3 -14 3 -19 1 -14 -6 3 -6 -6 -13 -25 -17 -23 -5 -28 -9 -18 -16 10 -6 8
-9 -10 -9 -16 0 -21 -4 -18 -14 4 -10 0 -12 -15 -8 -14 3 -19 1 -14 -6 4 -7 2
-12 -4 -12 -6 0 -9 -4 -6 -9 3 -4 -6 -6 -21 -3 -16 3 -24 1 -20 -5 4 -6 -4
-14 -18 -17 -16 -4 -22 -11 -19 -21 4 -10 0 -15 -11 -15 -9 0 -14 -4 -11 -9 3
-4 -6 -6 -21 -3 -16 3 -24 1 -20 -5 4 -6 -5 -14 -18 -17 -14 -4 -23 -11 -20
-16 3 -6 -1 -10 -10 -10 -9 0 -14 -4 -11 -9 3 -4 -6 -6 -19 -3 -19 3 -24 1
-20 -10 4 -9 -6 -18 -30 -27 -19 -7 -33 -17 -30 -22 4 -5 -4 -9 -17 -9 -19 0
-20 -2 -8 -10 11 -8 7 -9 -14 -4 -19 5 -27 3 -23 -3 4 -6 -5 -14 -19 -17 -17
-5 -24 -12 -20 -21 4 -10 -2 -15 -17 -15 -18 0 -19 -2 -7 -10 11 -8 7 -9 -14
-4 -19 5 -27 3 -23 -3 4 -6 -5 -14 -18 -17 -14 -4 -23 -10 -21 -15 3 -5 -8
-11 -25 -15 -22 -4 -30 -10 -25 -21 3 -9 0 -15 -10 -15 -9 0 -12 -5 -8 -12 4
-7 3 -8 -4 -4 -6 4 -23 4 -37 0 -17 -4 -23 -9 -15 -14 7 -4 -1 -10 -19 -13
-21 -4 -29 -11 -25 -20 3 -10 -4 -17 -21 -21 -14 -4 -24 -10 -21 -14 3 -5 -15
-14 -39 -21 -24 -7 -46 -19 -49 -27 -3 -8 -15 -14 -26 -14 -11 0 -20 -6 -20
-14 0 -19 -19 -24 -55 -15 -16 4 -24 7 -17 8 23 2 12 19 -18 26 -17 4 -28 10
-25 15 7 11 -52 33 -71 26 -12 -4 -15 -2 -10 9 3 10 -3 17 -20 21 -16 4 -23
12 -20 20 6 16 -36 30 -55 18 -9 -5 -10 -2 -6 9 4 12 -3 19 -28 28 -21 8 -31
17 -28 26 5 14 -32 19 -40 6 -2 -5 -2 -2 -1 5 2 6 -4 12 -12 12 -8 0 -12 4 -9
10 3 5 -6 12 -20 16 -13 3 -22 11 -18 17 4 6 -4 8 -20 5 -15 -3 -24 -1 -21 3
3 5 1 9 -5 9 -6 0 -8 7 -5 15 6 15 -20 22 -29 8 -2 -5 -2 -2 -1 5 2 6 -4 12
-12 12 -8 0 -13 4 -10 9 4 5 -7 12 -24 16 -18 4 -27 11 -24 17 5 7 0 9 -14 6
-12 -4 -20 -2 -16 3 3 5 -2 9 -10 9 -9 0 -13 6 -10 13 3 9 -9 18 -35 27 -22 7
-38 18 -34 23 4 6 -2 8 -15 5 -12 -4 -20 -2 -16 3 3 5 -4 9 -16 9 -12 0 -18 4
-15 10 3 5 -6 12 -20 16 -18 4 -24 11 -20 21 4 12 0 14 -15 10 -11 -3 -18 -1
-14 4 3 5 -4 9 -16 9 -12 0 -18 4 -15 10 3 5 -6 12 -20 16 -13 3 -22 11 -18
17 4 6 -4 8 -23 4 -16 -3 -23 -4 -16 -1 17 8 15 24 -4 24 -9 0 -12 5 -8 12 5
8 0 9 -14 6 -12 -4 -20 -2 -16 3 3 5 -2 9 -11 9 -9 0 -13 5 -10 10 4 6 -7 13
-24 16 -18 4 -28 11 -24 17 4 6 -2 8 -15 5 -15 -4 -19 -2 -15 8 3 9 -1 14 -12
14 -9 0 -13 5 -10 10 4 6 -7 13 -24 16 -17 4 -28 10 -26 14 7 12 -32 23 -46
14 -8 -4 -9 -3 -5 5 8 12 -9 34 -34 44 -8 3 543 6 1225 6 710 0 1234 -3 1226
-8z"/>
<path d="M1999 8870 c13 -11 19 -20 14 -20 -5 0 -14 5 -21 12 -9 9 -12 5 -12
-17 0 -46 10 -73 29 -78 14 -4 14 -5 -1 -6 -16 -1 -17 -9 -11 -63 3 -35 10
-64 15 -66 4 -2 8 -15 8 -28 0 -14 5 -35 11 -46 6 -12 15 -48 20 -82 5 -34 15
-92 24 -131 8 -38 18 -87 21 -107 4 -21 10 -38 14 -38 5 0 10 -21 13 -47 2
-27 19 -118 37 -203 18 -85 35 -176 37 -202 3 -27 8 -48 13 -48 4 0 10 -17 13
-37 3 -21 15 -81 27 -133 11 -52 25 -126 31 -165 19 -126 21 -135 28 -135 4 0
13 -28 20 -62 7 -35 17 -76 22 -93 6 -16 16 -63 24 -104 8 -41 19 -77 24 -80
8 -6 17 -53 40 -201 16 -98 52 -265 60 -270 4 -3 15 -50 25 -105 17 -93 42
-220 53 -272 3 -13 12 -23 19 -23 8 0 14 -10 14 -26 0 -14 4 -23 10 -19 6 3
10 -1 10 -10 0 -9 13 -21 28 -28 16 -7 27 -18 25 -24 -3 -8 4 -13 17 -13 12 0
19 -4 15 -9 -7 -12 31 -25 47 -15 8 5 9 2 5 -9 -4 -11 -1 -17 9 -17 8 0 13 -4
10 -9 -4 -5 8 -12 25 -16 22 -5 29 -11 25 -22 -5 -12 -1 -14 14 -10 11 3 18 1
14 -4 -3 -5 0 -9 6 -9 6 0 8 -5 4 -11 -5 -8 1 -10 20 -7 20 4 26 2 22 -8 -3
-9 4 -16 19 -20 15 -4 22 -11 18 -20 -3 -10 5 -16 27 -20 23 -5 28 -9 18 -16
-9 -7 -5 -8 14 -5 15 2 25 0 22 -4 -3 -5 2 -9 11 -9 9 0 14 -4 10 -10 -3 -5 9
-14 27 -19 18 -5 27 -10 21 -10 -25 -2 -13 -19 17 -26 18 -4 27 -11 24 -17 -5
-7 0 -9 14 -6 12 4 20 2 16 -3 -3 -5 5 -9 18 -9 17 0 19 -3 9 -9 -10 -7 -5
-11 18 -16 18 -4 28 -11 25 -17 -8 -13 15 -28 44 -28 13 0 20 -4 17 -10 -3 -5
-1 -10 5 -10 6 0 8 -5 4 -12 -5 -8 0 -9 14 -6 12 4 20 2 16 -3 -3 -5 2 -9 10
-9 10 0 13 -6 10 -15 -5 -11 3 -17 25 -21 17 -4 28 -10 25 -15 -3 -5 2 -9 11
-9 10 0 13 -5 9 -12 -5 -8 0 -9 14 -6 12 4 20 2 16 -3 -3 -5 5 -9 18 -9 18 0
20 -2 8 -10 -13 -8 -12 -10 3 -10 9 0 17 -4 17 -10 0 -5 7 -10 16 -10 9 0 12
-5 8 -12 -5 -8 0 -9 14 -6 12 4 20 2 16 -3 -3 -5 0 -9 6 -9 6 0 8 -5 4 -11 -5
-8 1 -10 20 -7 20 4 26 2 22 -8 -3 -9 4 -16 20 -20 16 -4 23 -11 20 -21 -4 -9
4 -16 24 -20 17 -3 27 -10 23 -16 -4 -6 2 -8 15 -5 12 4 20 2 16 -3 -3 -5 2
-9 11 -9 9 0 13 -5 10 -10 -4 -6 8 -13 25 -16 21 -5 29 -11 26 -20 -3 -9 4
-16 19 -20 14 -3 23 -10 20 -14 -3 -4 7 -11 21 -14 15 -4 44 -25 64 -47 21
-21 45 -39 53 -39 8 0 25 -9 38 -20 13 -11 29 -23 34 -28 25 -21 136 -39 370
-63 55 -5 110 -14 123 -19 13 -6 41 -10 62 -10 22 0 40 -4 40 -10 0 -5 16 -10
35 -10 19 0 54 -4 77 -10 24 -5 93 -17 153 -25 61 -9 146 -23 191 -31 44 -8
94 -14 111 -14 17 0 33 -4 35 -9 3 -9 214 -42 438 -68 74 -8 137 -20 138 -24
5 -12 42 -12 42 0 0 5 -6 12 -12 14 -10 4 -10 6 0 6 7 1 15 -6 18 -14 6 -15
34 -22 34 -8 0 4 -10 18 -22 32 -13 14 -16 20 -8 14 14 -11 16 -1 13 85 -2 53
-8 124 -13 158 -6 33 -10 75 -10 92 0 18 -4 32 -10 32 -5 0 -10 16 -10 35 0
19 -4 54 -9 77 -16 74 -41 220 -50 302 -5 43 -14 82 -19 85 -5 3 -14 53 -20
111 -6 58 -18 150 -26 205 -8 55 -22 156 -31 225 -9 69 -20 127 -24 130 -4 3
-16 66 -26 140 -10 74 -28 164 -40 200 -19 58 -24 65 -48 65 -21 -1 -24 2 -14
14 10 12 8 13 -11 9 -19 -5 -21 -4 -12 7 9 11 6 16 -15 21 -16 4 -24 12 -21
19 7 19 -42 29 -62 13 -13 -12 -14 -10 -3 9 10 20 9 23 -14 29 -14 3 -22 10
-19 15 3 5 -2 9 -10 9 -9 0 -16 5 -16 10 0 14 -27 12 -34 -2 -4 -7 -4 -3 -2 8
4 22 -26 44 -60 44 -9 0 -12 5 -8 12 5 8 0 9 -14 6 -12 -4 -20 -2 -16 3 3 5
-2 9 -10 9 -9 0 -13 6 -10 14 6 16 -59 42 -78 30 -8 -5 -9 -2 -5 9 5 12 -1 19
-18 23 -14 3 -23 10 -20 14 3 5 -9 11 -26 15 -22 5 -29 11 -25 22 5 12 1 14
-14 10 -11 -3 -18 -1 -14 4 3 5 -5 9 -18 9 -17 0 -19 3 -9 9 10 7 5 11 -18 16
-19 4 -28 11 -25 17 5 7 0 9 -14 6 -12 -4 -20 -2 -16 3 3 5 -4 9 -15 9 -23 0
-29 16 -8 23 6 2 -3 7 -21 11 -19 5 -30 12 -26 18 5 7 0 9 -14 6 -12 -4 -20
-2 -16 3 3 5 0 9 -6 9 -6 0 -8 5 -4 11 5 8 -1 10 -19 7 -18 -3 -24 -1 -20 8 3
8 -5 16 -21 20 -14 3 -23 10 -21 15 8 11 -41 23 -56 13 -9 -5 -10 -2 -6 9 4
12 0 18 -18 23 -15 4 -22 11 -18 19 6 16 -39 31 -58 19 -9 -5 -10 -2 -6 9 5
12 -1 19 -18 23 -14 3 -22 10 -19 15 3 5 -8 12 -25 15 -20 4 -28 11 -24 20 5
14 -22 20 -30 7 -2 -5 -2 -2 -1 5 2 6 -4 12 -12 12 -8 0 -12 5 -9 10 4 6 -7
13 -24 16 -18 4 -28 11 -24 17 4 6 -2 8 -15 5 -12 -4 -20 -2 -16 3 3 5 -2 9
-10 9 -10 0 -13 6 -10 15 5 11 -3 17 -25 21 -17 4 -28 11 -24 17 4 6 -2 8 -15
5 -12 -4 -20 -2 -16 3 3 5 0 9 -6 9 -6 0 -8 5 -4 12 5 8 0 9 -14 6 -12 -4 -20
-2 -16 3 3 5 -5 9 -16 9 -15 0 -20 5 -17 14 4 10 -4 17 -24 21 -16 4 -27 10
-24 15 7 11 -62 33 -76 24 -8 -4 -9 -3 -5 5 10 15 -30 51 -56 51 -12 0 -16 4
-12 12 5 8 0 9 -14 6 -12 -4 -20 -2 -17 2 3 5 -4 11 -15 15 -11 3 -20 10 -20
15 0 4 -12 11 -26 14 -17 5 -24 12 -20 21 3 9 0 15 -9 15 -18 0 -45 55 -45 92
0 15 -4 28 -10 28 -5 0 -10 12 -10 27 0 15 -4 40 -9 57 -14 46 -52 239 -68
344 -3 17 -9 32 -13 32 -4 0 -10 24 -14 53 -22 182 -32 248 -38 242 -4 -4 -4
3 -1 16 5 17 3 20 -8 14 -12 -8 -12 -6 0 8 11 14 11 17 0 17 -10 0 -10 3 -1
12 16 16 15 28 -2 28 -8 0 -16 -7 -20 -15 -3 -8 -11 -15 -18 -15 -9 0 -9 3 2
10 8 5 12 11 9 14 -3 3 -82 10 -175 16 -208 12 -522 37 -629 49 -44 6 -132 10
-197 10 -79 1 -118 5 -120 13 -3 7 -64 14 -189 19 -119 5 -202 13 -234 23 -69
22 -86 20 -56 -4z m565 -210 c105 -6 192 -14 195 -19 3 -5 42 -11 86 -14 69
-4 213 -16 553 -43 l82 -7 0 -43 c0 -23 5 -44 11 -46 6 -2 17 -51 25 -108 15
-113 36 -231 53 -295 6 -22 11 -57 11 -77 0 -21 4 -38 8 -38 5 0 14 -26 21
-57 33 -163 51 -224 62 -217 5 3 9 -2 9 -11 0 -11 5 -15 15 -11 9 3 15 0 15
-10 0 -9 9 -18 20 -21 11 -3 17 -9 14 -14 -3 -5 8 -12 25 -15 17 -4 31 -10 31
-15 0 -4 16 -13 35 -20 20 -8 34 -18 31 -25 -3 -7 8 -14 25 -18 17 -3 28 -10
25 -15 -4 -5 8 -12 25 -16 17 -4 28 -9 25 -12 -8 -8 17 -29 44 -38 13 -4 30
-14 38 -22 8 -8 27 -17 43 -20 16 -3 26 -9 24 -13 -7 -12 32 -23 46 -14 8 5
10 1 7 -14 -5 -17 0 -22 23 -27 16 -4 27 -10 24 -15 -7 -11 32 -23 46 -15 6 4
9 0 7 -11 -2 -15 3 -19 25 -19 22 1 27 -3 24 -16 -5 -18 29 -39 61 -39 15 0
15 -2 2 -11 -12 -8 -9 -10 12 -6 15 2 25 0 22 -4 -3 -5 3 -9 12 -9 10 0 15 -3
11 -6 -9 -10 19 -34 40 -34 15 0 16 -2 3 -11 -12 -8 -9 -10 12 -6 15 2 25 0
22 -4 -3 -5 2 -9 11 -9 9 0 13 -5 10 -10 -4 -6 8 -13 25 -17 22 -4 27 -8 19
-14 -19 -11 -5 -22 31 -23 20 -1 29 -5 25 -14 -3 -8 7 -15 26 -19 18 -3 26 -9
19 -13 -8 -5 -2 -10 15 -14 14 -4 31 -4 37 0 6 4 8 -1 3 -15 -5 -18 -2 -22 25
-28 21 -4 27 -8 19 -14 -8 -5 0 -10 24 -14 20 -4 35 -12 34 -19 -1 -6 9 -10
26 -9 15 1 27 -2 27 -8 0 -5 -4 -9 -10 -9 -23 0 -8 -19 20 -25 17 -4 28 -10
25 -15 -7 -11 24 -22 46 -15 21 7 27 -11 7 -18 -7 -2 1 -7 19 -11 21 -5 30
-12 27 -21 -7 -16 38 -31 57 -19 9 5 10 2 6 -9 -5 -12 1 -19 18 -23 14 -3 22
-10 20 -15 -8 -11 41 -23 56 -13 9 5 11 1 7 -14 -4 -12 -3 -22 1 -22 5 0 19
-9 32 -21 14 -12 33 -19 46 -16 12 2 20 0 17 -4 -3 -5 3 -9 12 -9 10 0 15 -3
11 -6 -8 -8 18 -34 33 -34 6 0 9 -4 5 -9 -3 -5 11 -15 30 -21 19 -6 35 -16 35
-21 0 -6 4 -8 9 -4 11 6 27 -41 37 -105 4 -25 11 -47 15 -50 4 -3 12 -41 18
-85 6 -44 17 -129 26 -190 9 -60 22 -156 29 -213 7 -57 17 -107 23 -110 6 -4
16 -56 22 -117 10 -100 33 -272 45 -335 3 -14 10 -62 17 -107 6 -46 15 -83 18
-83 9 0 46 -278 38 -286 -6 -6 -110 6 -272 32 -55 9 -145 21 -199 28 -58 7
-101 17 -104 24 -2 7 -21 12 -43 12 -39 0 -251 31 -339 50 -25 5 -80 13 -123
16 -43 4 -84 13 -91 19 -7 7 -59 18 -117 24 -205 21 -282 33 -296 47 -8 8 -21
14 -29 14 -8 0 -14 7 -14 15 0 8 -4 15 -8 15 -8 0 -19 8 -68 49 -6 5 -20 12
-32 15 -12 4 -22 12 -22 17 0 5 -7 9 -16 9 -8 0 -12 5 -9 10 4 6 -7 13 -24 16
-17 4 -28 10 -25 15 2 5 -7 11 -21 15 -14 3 -22 11 -18 17 4 6 -2 8 -15 5 -15
-4 -19 -2 -15 8 3 9 -2 14 -13 14 -16 0 -17 2 -4 11 12 8 9 10 -12 6 -19 -3
-25 0 -21 10 3 7 1 13 -4 13 -6 0 -20 9 -33 20 -13 11 -32 20 -43 20 -14 0
-17 5 -13 16 5 13 2 15 -14 11 -11 -3 -18 -1 -14 4 3 5 0 9 -6 9 -6 0 -9 4 -5
9 3 6 -11 13 -30 17 -20 3 -34 9 -31 11 7 7 -20 33 -34 33 -6 0 -8 5 -4 11 5
9 -1 10 -22 5 -21 -5 -25 -4 -14 4 12 8 11 10 -8 10 -13 0 -20 4 -17 10 3 5
-6 12 -20 16 -14 3 -24 9 -21 11 9 9 -22 33 -43 33 -12 0 -20 6 -19 13 2 7 -7
12 -20 11 -15 0 -21 4 -18 13 3 7 -1 13 -10 13 -8 0 -13 4 -10 9 4 5 -8 12
-25 16 -19 4 -29 12 -25 20 6 16 -20 28 -45 20 -21 -7 -26 10 -6 18 6 3 2 6
-11 6 -13 1 -20 5 -17 11 3 5 -5 12 -19 16 -16 4 -23 11 -19 20 3 10 -5 16
-26 20 -17 4 -28 11 -24 17 4 6 -2 8 -15 5 -14 -4 -19 -2 -16 7 3 7 -4 16 -15
20 -12 3 -21 11 -21 16 0 5 -7 9 -15 9 -8 0 -15 5 -15 10 0 6 -7 10 -16 10 -9
0 -12 5 -8 12 5 8 0 9 -14 6 -12 -4 -20 -2 -16 3 3 5 0 9 -6 9 -6 0 -8 5 -4
11 5 8 -1 10 -19 7 -15 -3 -24 -1 -21 3 3 5 -2 9 -10 9 -9 0 -13 6 -10 15 4 9
-3 16 -20 21 -14 3 -23 10 -21 15 7 11 -40 23 -55 14 -7 -4 -10 -1 -9 6 1 8 0
21 -3 29 -13 35 -28 99 -37 159 -6 36 -15 67 -19 70 -10 6 -28 94 -43 201 -5
36 -15 92 -23 125 -8 33 -17 77 -21 98 -3 20 -9 37 -14 37 -4 0 -13 30 -19 68
-7 37 -19 99 -27 137 -8 39 -22 106 -30 149 -8 44 -19 82 -23 85 -5 3 -14 33
-20 66 -6 33 -21 103 -32 155 -11 52 -24 126 -29 164 -5 38 -14 72 -19 75 -5
3 -14 35 -20 71 -6 36 -18 94 -27 130 -9 36 -20 103 -25 149 -5 47 -15 88 -21
92 -6 3 -18 44 -26 90 -58 337 -66 373 -80 387 -7 7 -13 24 -13 37 0 13 -3 31
-7 41 -6 16 1 17 93 10 54 -3 184 -11 288 -16z"/>
<path d="M2754 7962 c6 -10 11 -38 26 -147 6 -43 14 -82 19 -85 4 -3 13 -32
20 -65 32 -174 34 -177 59 -168 14 5 15 3 5 -8 -19 -19 -16 -29 10 -29 16 0
18 -3 8 -9 -10 -7 -5 -11 18 -16 19 -4 28 -11 25 -17 -5 -7 0 -9 14 -6 12 4
20 2 16 -3 -3 -5 5 -9 18 -9 18 0 20 -2 8 -10 -13 -8 -12 -10 3 -10 9 0 17 -4
17 -10 0 -5 7 -10 16 -10 8 0 13 -4 9 -9 -7 -12 28 -23 49 -15 9 3 16 1 16 -5
0 -6 -6 -11 -12 -12 -7 0 3 -7 22 -14 19 -7 31 -14 27 -14 -12 -1 19 -31 32
-31 6 0 11 5 11 10 0 6 5 10 10 10 15 0 12 -30 -2 -30 -7 0 -5 -5 5 -11 10 -6
25 -8 34 -5 11 4 14 2 9 -9 -6 -17 35 -32 54 -20 6 4 11 1 9 -6 -3 -27 1 -39
15 -39 8 0 17 6 20 13 4 6 4 2 2 -11 -4 -19 1 -24 26 -29 18 -3 25 -9 18 -13
-8 -5 -2 -10 15 -14 14 -4 31 -4 37 0 6 4 8 -1 3 -15 -5 -18 -2 -22 25 -28 20
-3 27 -9 19 -13 -7 -5 0 -10 20 -15 19 -4 28 -11 25 -17 -5 -7 0 -9 14 -6 12
4 20 2 16 -3 -3 -5 5 -9 18 -10 13 0 17 -3 11 -6 -22 -8 -14 -21 17 -28 18 -4
27 -11 24 -17 -5 -7 0 -9 14 -6 12 4 20 2 16 -3 -3 -5 5 -9 18 -9 17 0 19 -3
9 -9 -10 -7 -6 -11 17 -16 21 -4 29 -11 25 -21 -5 -14 22 -21 30 -6 2 4 2 1 1
-5 -2 -7 1 -13 7 -13 6 0 7 -5 3 -11 -5 -8 1 -10 19 -7 15 3 24 1 21 -3 -3 -5
2 -9 11 -9 10 0 13 -5 9 -12 -5 -8 0 -9 14 -6 12 4 20 2 16 -3 -3 -5 -1 -9 5
-9 6 0 8 -7 5 -15 -4 -10 0 -15 14 -15 11 0 22 3 25 8 2 4 2 1 1 -5 -2 -7 4
-13 12 -13 8 0 12 -4 9 -10 -3 -5 6 -12 20 -16 13 -3 22 -11 18 -17 -4 -6 4
-8 20 -5 15 3 24 1 21 -3 -3 -5 2 -9 11 -9 11 0 15 -5 11 -15 -3 -10 3 -17 19
-21 14 -3 23 -10 20 -14 -7 -11 43 -22 57 -14 8 5 9 1 5 -10 -5 -13 0 -18 23
-23 30 -5 42 -22 18 -24 -7 0 -2 -5 11 -10 14 -5 31 -7 39 -4 10 3 12 0 8 -10
-4 -11 3 -17 25 -22 18 -3 26 -9 19 -13 -8 -5 -2 -10 15 -14 14 -4 31 -4 36 0
7 4 9 -3 7 -17 -3 -21 1 -24 25 -22 27 2 38 -12 15 -20 -7 -2 2 -7 20 -11 18
-4 30 -11 27 -16 -7 -12 28 -22 49 -14 10 4 16 1 16 -9 0 -8 -6 -17 -12 -20
-7 -2 2 -7 20 -11 18 -4 30 -11 27 -16 -7 -11 24 -21 49 -15 12 3 15 2 9 -1
-16 -7 -17 -24 -3 -24 6 0 22 -11 36 -25 14 -14 32 -25 40 -25 9 0 12 -5 8
-11 -5 -8 1 -10 20 -7 15 3 25 3 22 1 -7 -7 41 -53 54 -53 6 0 9 -4 6 -9 -4
-5 7 -12 24 -16 18 -4 27 -11 24 -17 -5 -7 1 -9 15 -5 13 3 20 3 17 0 -5 -6
18 -33 29 -33 3 0 17 -11 31 -25 14 -14 31 -25 39 -25 8 0 15 -4 15 -9 0 -5
11 -12 24 -15 14 -3 28 -15 31 -26 9 -27 22 -25 27 5 3 14 2 25 -2 25 -4 0
-11 57 -15 127 -4 70 -13 160 -21 201 -8 41 -14 76 -14 78 0 2 -7 4 -15 4 -8
0 -15 7 -15 16 0 12 -7 15 -25 12 -21 -4 -23 -2 -15 13 8 14 6 19 -10 24 -11
4 -17 11 -14 17 5 7 -2 9 -19 6 -15 -3 -24 -1 -21 3 3 5 -2 9 -11 9 -9 0 -13
4 -10 10 3 5 -6 12 -20 16 -18 4 -24 11 -20 21 4 12 -1 14 -20 11 -13 -3 -22
-1 -19 3 3 5 -2 9 -11 9 -9 0 -13 4 -10 10 3 5 -6 12 -20 16 -13 3 -22 11 -18
17 4 6 -4 8 -20 5 -15 -3 -24 -1 -21 3 3 5 -2 9 -11 9 -11 0 -15 5 -11 15 3
10 -3 17 -19 21 -14 3 -22 11 -18 17 4 6 -4 8 -20 5 -15 -3 -24 -1 -21 3 3 5
-3 9 -12 9 -10 0 -15 3 -11 6 8 8 -18 34 -33 34 -6 0 -8 5 -4 11 5 8 -1 10
-19 7 -15 -3 -24 -1 -21 3 3 5 -7 11 -21 15 -13 3 -22 10 -20 15 7 11 -40 23
-56 14 -8 -5 -9 -1 -5 13 5 15 2 22 -14 27 -11 3 -20 11 -20 17 0 6 -13 8 -30
6 -23 -4 -30 -1 -28 11 2 11 -4 16 -20 15 -12 0 -21 4 -19 10 5 15 -18 36 -40
36 -14 0 -15 2 -5 9 10 6 7 10 -13 15 -14 4 -31 3 -37 0 -8 -5 -9 -1 -5 10 5
13 0 18 -24 23 -16 3 -28 8 -25 11 7 6 -20 32 -34 32 -6 0 -8 5 -4 12 5 8 0 9
-14 6 -12 -4 -20 -2 -16 3 3 5 -4 9 -16 9 -12 0 -18 4 -15 10 3 5 -5 12 -19
16 -16 4 -23 11 -19 20 5 14 -22 20 -30 7 -2 -5 -2 -2 -1 5 2 6 -4 12 -14 12
-15 0 -15 2 -2 11 12 8 9 10 -12 6 -15 -2 -25 0 -22 4 3 5 -2 9 -11 9 -10 0
-13 5 -9 12 5 8 0 9 -14 6 -12 -4 -20 -2 -16 3 3 5 -3 9 -13 10 -10 0 -13 3
-5 6 6 2 12 9 12 14 0 11 -37 12 -43 2 -2 -5 -2 -2 -1 5 2 6 -4 12 -12 12 -8
0 -12 5 -9 10 4 6 -8 13 -25 17 -23 4 -28 8 -18 15 9 7 5 8 -14 5 -15 -2 -25
0 -22 4 3 5 -2 9 -10 9 -10 0 -13 6 -10 15 5 11 -3 17 -26 21 -22 5 -28 9 -18
15 9 6 6 9 -10 9 -15 0 -21 4 -16 12 5 8 0 9 -14 6 -12 -4 -20 -2 -16 3 3 5
-3 9 -12 9 -10 0 -15 3 -11 6 9 9 -19 34 -38 34 -10 0 -13 5 -9 12 5 8 0 9
-14 6 -12 -4 -20 -2 -16 3 3 5 0 9 -6 9 -6 0 -9 4 -5 9 3 6 -10 13 -29 16 -24
5 -33 11 -29 21 5 14 -22 20 -30 7 -2 -5 -2 -2 -1 5 2 6 -1 12 -7 12 -6 0 -8
4 -4 9 3 6 -10 13 -30 17 -19 3 -32 10 -30 15 3 5 -5 11 -19 15 -16 4 -23 11
-19 20 5 15 -31 21 -40 7 -2 -5 -2 -2 -1 5 2 6 -4 12 -12 12 -8 0 -12 4 -9 10
3 5 -6 12 -20 16 -13 3 -23 10 -20 14 6 9 -19 20 -46 20 -12 0 -16 5 -13 15 4
9 -3 16 -20 21 -14 3 -24 10 -21 14 6 9 -19 20 -46 20 -10 0 -18 6 -16 13 1 7
-8 12 -21 11 -17 0 -21 3 -16 18 4 14 -1 20 -25 24 -17 4 -28 10 -26 14 3 5
-5 12 -17 16 -23 7 -40 19 -66 47 -16 17 -48 25 -38 9z m281 -349 c-2 -7 7
-16 21 -19 14 -4 23 -9 20 -11 -7 -7 20 -33 35 -33 6 0 18 8 25 18 12 15 13
14 4 -10 -8 -25 -7 -28 15 -34 14 -3 22 -10 20 -15 -7 -11 40 -23 54 -14 7 4
10 -3 8 -17 -1 -18 3 -23 21 -22 15 0 21 -4 18 -12 -3 -8 7 -15 25 -19 16 -4
27 -10 24 -15 -8 -13 36 -23 48 -11 6 6 15 11 20 11 5 0 1 -7 -7 -16 -23 -23
-20 -32 14 -39 17 -4 28 -11 25 -16 -3 -4 6 -11 20 -15 13 -3 22 -11 18 -17
-4 -6 4 -8 20 -5 15 3 24 1 21 -3 -3 -5 2 -9 10 -9 9 0 13 -6 10 -15 -4 -9 3
-16 20 -21 14 -3 23 -11 19 -17 -4 -6 4 -8 20 -5 15 3 24 1 21 -3 -3 -5 2 -9
11 -9 9 0 13 -4 10 -10 -3 -5 5 -12 19 -16 16 -4 23 -11 19 -20 -5 -15 31 -21
40 -6 2 4 2 1 1 -5 -2 -7 1 -13 7 -13 6 0 7 -5 3 -12 -5 -8 0 -9 14 -6 12 4
20 2 16 -3 -3 -5 2 -9 11 -9 9 0 13 -5 10 -10 -4 -6 8 -13 25 -16 22 -5 29
-11 25 -22 -4 -11 0 -13 15 -9 11 3 18 1 14 -4 -3 -5 2 -9 11 -9 9 0 13 -5 10
-10 -4 -6 7 -13 24 -16 17 -4 28 -10 25 -15 -3 -5 2 -9 10 -9 9 0 16 -8 16
-17 0 -15 2 -14 16 3 15 18 15 18 11 -4 -4 -19 0 -24 24 -29 16 -3 26 -9 23
-14 -3 -5 2 -9 10 -9 9 0 16 -5 16 -11 0 -8 6 -7 17 2 15 12 16 12 10 -4 -5
-14 0 -19 24 -24 20 -4 28 -10 25 -19 -3 -8 1 -14 9 -14 8 0 15 -5 15 -11 0
-8 6 -7 17 2 15 12 16 12 10 -3 -4 -12 -2 -18 8 -18 8 0 15 -5 15 -12 0 -6 10
-3 21 8 22 19 22 19 10 -3 -10 -20 -9 -23 8 -23 14 0 19 -5 15 -15 -4 -9 0
-15 9 -15 8 0 17 -6 20 -12 3 -10 8 -9 22 2 17 14 18 13 12 -2 -5 -13 0 -19
18 -24 14 -3 22 -10 20 -15 -7 -11 40 -23 55 -14 8 5 11 -1 8 -16 -2 -19 1
-24 20 -23 14 0 21 -4 18 -12 -5 -13 14 -24 45 -24 10 0 18 -6 17 -12 -2 -8 7
-13 20 -12 18 1 22 -4 19 -18 -4 -13 2 -20 18 -24 13 -3 29 -3 35 1 7 4 10 0
8 -11 -2 -14 3 -19 20 -18 15 0 21 -4 18 -13 -6 -15 36 -29 54 -18 8 5 11 -1
8 -16 -2 -19 1 -24 20 -23 15 0 21 -4 18 -13 -4 -9 4 -16 24 -20 16 -3 27 -9
24 -14 -3 -5 2 -12 10 -15 9 -3 16 -13 16 -21 0 -8 4 -12 9 -9 5 3 11 -4 15
-17 10 -36 7 -42 -18 -42 -15 0 -22 5 -19 13 3 7 -7 14 -26 18 -17 4 -28 10
-26 14 6 10 -31 24 -43 16 -5 -3 -8 5 -8 17 1 17 -5 22 -25 22 -17 0 -25 4
-22 12 3 7 -6 15 -21 19 -14 3 -23 10 -20 15 3 5 -9 12 -26 15 -22 5 -29 11
-25 22 4 11 0 13 -15 9 -11 -3 -18 -1 -14 4 3 5 -2 9 -11 9 -9 0 -13 5 -10 10
4 6 -7 13 -24 16 -18 4 -28 11 -24 17 4 6 -2 8 -15 5 -12 -4 -20 -2 -16 3 3 5
0 9 -6 9 -7 0 -9 7 -6 16 5 13 2 15 -14 11 -11 -3 -18 -1 -14 4 3 5 -4 9 -16
9 -12 0 -18 4 -15 10 3 5 -6 12 -20 16 -14 3 -22 11 -18 17 4 6 -2 8 -15 5
-12 -4 -20 -2 -16 3 3 5 -5 9 -16 9 -16 0 -20 5 -16 15 3 10 -3 17 -19 21 -14
3 -22 10 -20 15 8 11 -40 23 -56 14 -7 -5 -10 -3 -7 6 5 15 -14 39 -32 39 -6
0 -8 4 -5 10 7 12 -40 24 -56 14 -9 -5 -10 -2 -6 9 5 12 -1 19 -19 23 -14 4
-23 9 -20 11 8 8 -21 33 -37 33 -9 0 -18 -6 -21 -12 -3 -7 -4 -2 -3 12 2 20
-2 25 -21 24 -15 0 -21 4 -18 13 4 9 -5 16 -25 20 -16 3 -28 8 -25 11 7 6 -20
32 -32 32 -6 0 -13 -6 -16 -12 -4 -7 -4 -3 -2 10 4 19 -1 24 -25 29 -16 3 -26
9 -24 13 7 11 -32 23 -46 14 -7 -4 -10 -1 -7 7 6 17 -15 39 -37 39 -9 0 -13 4
-10 10 3 5 -6 12 -20 16 -14 3 -22 11 -18 17 4 6 -2 8 -15 5 -12 -4 -20 -2
-16 3 3 5 -4 9 -15 9 -14 0 -19 5 -15 15 4 9 -3 16 -20 21 -15 3 -23 11 -19
17 4 6 -2 8 -15 5 -12 -4 -20 -2 -16 3 3 5 -4 9 -16 9 -12 0 -18 4 -15 10 3 5
-5 12 -19 16 -16 4 -23 11 -19 20 5 14 -22 20 -30 7 -2 -5 -2 -2 -1 5 2 6 -4
12 -14 12 -15 0 -15 2 -2 11 12 8 9 10 -12 6 -15 -2 -25 0 -22 4 3 5 -2 9 -11
9 -9 0 -14 4 -10 10 3 5 -9 14 -27 19 -18 5 -27 10 -20 10 6 1 12 6 12 11 0
12 -36 14 -43 3 -2 -5 -2 -2 -1 5 2 6 -4 12 -12 12 -8 0 -12 5 -9 10 4 6 -7
13 -24 16 -18 4 -28 11 -24 17 4 6 -2 8 -15 5 -12 -4 -20 -2 -16 3 3 5 -2 9
-10 9 -10 0 -13 6 -10 15 5 11 -3 17 -25 21 -17 4 -28 10 -26 14 7 11 -32 23
-46 15 -6 -4 -9 0 -7 11 2 13 -4 20 -18 22 -13 2 -24 12 -27 25 -2 12 -7 29
-11 38 -6 12 0 15 29 15 24 -1 34 -5 30 -13z"/>
<path d="M2924 7123 c2 -15 5 -28 6 -28 1 0 4 -13 5 -30 16 -145 53 -324 69
-341 9 -8 16 -23 16 -32 0 -14 2 -15 10 -2 5 8 12 11 16 7 4 -3 1 -13 -6 -22
-9 -11 -9 -15 -1 -15 7 0 9 -5 5 -12 -5 -8 0 -9 14 -6 12 4 20 2 16 -3 -3 -5
5 -9 18 -9 17 0 19 -3 9 -9 -11 -7 -9 -10 8 -16 11 -3 26 -3 32 1 8 5 10 0 7
-14 -6 -22 15 -36 43 -29 8 2 11 2 7 0 -13 -7 -9 -23 5 -23 8 0 24 -9 37 -20
13 -11 27 -20 32 -20 4 0 8 -6 8 -14 0 -15 45 -30 60 -21 6 3 7 0 4 -8 -5 -14
34 -37 63 -37 9 0 14 -3 10 -6 -8 -8 18 -34 33 -34 6 0 8 -4 5 -10 -7 -12 40
-24 56 -14 8 4 9 3 5 -4 -4 -7 -1 -12 9 -12 9 0 13 -4 10 -10 -3 -5 6 -12 20
-16 16 -4 24 -12 21 -19 -5 -15 39 -29 56 -19 8 5 9 2 5 -9 -4 -11 -1 -17 9
-17 8 0 12 -5 9 -10 -4 -6 7 -13 24 -16 19 -4 28 -11 24 -20 -3 -8 5 -16 21
-20 15 -3 23 -11 19 -17 -4 -6 2 -8 15 -5 12 4 20 2 16 -3 -3 -5 4 -9 16 -9
12 0 18 -4 15 -10 -3 -5 5 -12 19 -16 15 -4 23 -11 19 -19 -6 -16 39 -31 58
-19 9 5 10 2 6 -9 -5 -12 1 -19 18 -23 14 -3 22 -10 20 -15 -7 -11 40 -23 54
-14 7 4 10 -3 8 -17 -1 -18 3 -23 21 -22 15 0 21 -4 18 -13 -6 -15 36 -29 54
-18 7 4 10 0 8 -11 -2 -14 3 -19 20 -18 18 1 22 -3 19 -18 -4 -14 1 -20 24
-25 16 -3 26 -9 24 -13 -7 -12 32 -23 47 -14 8 5 9 2 5 -10 -5 -13 0 -18 24
-23 20 -4 28 -10 25 -19 -3 -9 4 -16 19 -20 14 -3 22 -11 18 -17 -4 -6 2 -8
15 -5 12 4 20 2 17 -2 -3 -5 9 -11 26 -15 17 -4 28 -9 25 -12 -6 -7 19 -33 32
-33 6 0 13 6 16 13 4 6 4 2 2 -10 -3 -17 2 -23 25 -28 16 -4 27 -10 24 -15 -7
-11 32 -23 46 -15 5 4 10 1 8 -6 -3 -29 2 -39 20 -39 11 0 22 6 25 13 4 6 4 2
2 -11 -3 -17 2 -24 20 -28 13 -3 21 -10 19 -15 -8 -11 40 -23 56 -14 7 5 10 3
7 -6 -5 -15 14 -39 32 -39 6 0 8 -4 5 -10 -7 -12 40 -24 56 -14 8 4 9 3 5 -4
-4 -7 -1 -12 9 -12 9 0 13 -5 10 -10 -4 -6 7 -13 24 -16 32 -7 40 -18 19 -28
-7 -3 -1 -4 14 -2 15 1 26 0 23 -4 -2 -3 5 -13 17 -21 11 -8 27 -20 35 -28 8
-8 27 -14 42 -15 20 -1 27 -5 24 -17 -3 -11 9 -21 43 -34 44 -17 59 -27 109
-75 14 -14 24 -17 35 -10 11 7 11 10 2 10 -7 0 -12 8 -11 18 1 9 -1 28 -4 42
-3 14 -11 62 -18 108 -7 45 -16 82 -20 82 -4 0 -10 24 -13 54 -7 50 -44 164
-46 141 -1 -5 -5 0 -10 13 -5 12 -18 22 -29 22 -13 0 -19 5 -15 14 6 16 -29
31 -47 21 -6 -4 -9 0 -7 11 2 15 -3 19 -25 19 -18 -1 -26 3 -23 12 3 7 -5 15
-19 19 -15 4 -22 11 -18 19 6 16 -39 31 -58 19 -9 -5 -10 -2 -6 9 5 12 -1 19
-18 23 -14 3 -22 10 -19 15 3 5 -8 12 -25 15 -20 4 -28 11 -24 20 5 14 -22 20
-30 7 -2 -5 -2 -2 -1 5 2 6 -4 12 -12 12 -8 0 -12 5 -9 10 4 6 -7 13 -24 16
-18 4 -28 11 -24 17 4 6 -2 8 -15 5 -12 -4 -20 -2 -16 3 3 5 0 9 -6 9 -7 0 -9
7 -6 16 5 13 2 15 -14 11 -11 -3 -18 -1 -14 4 3 5 -4 9 -16 9 -12 0 -19 4 -15
9 3 5 -4 12 -15 16 -11 3 -20 11 -20 16 0 5 -15 9 -32 10 -18 0 -27 3 -20 6
21 8 13 21 -18 28 -18 4 -27 11 -24 17 5 7 0 9 -14 6 -12 -4 -20 -2 -16 3 3 5
0 9 -6 9 -6 0 -8 5 -4 11 5 8 -1 10 -19 7 -15 -3 -24 -1 -21 3 3 5 -2 9 -10 9
-9 0 -13 6 -10 15 4 9 -3 16 -20 21 -14 3 -23 11 -19 17 4 6 -4 8 -20 5 -15
-3 -24 -1 -21 3 3 5 -2 9 -11 9 -9 0 -13 4 -10 10 3 5 -5 12 -19 16 -16 4 -23
11 -19 20 5 15 -31 21 -40 7 -2 -5 -2 -2 -1 5 2 6 -4 12 -12 12 -8 0 -12 5 -9
10 4 6 -8 13 -25 17 -19 3 -27 9 -20 13 8 5 2 10 -15 14 -14 4 -31 4 -37 0 -7
-5 -9 0 -5 15 4 18 0 23 -25 28 -18 3 -25 9 -18 13 8 5 2 10 -15 14 -14 4 -31
3 -37 0 -8 -5 -9 -1 -5 10 5 13 0 18 -23 23 -30 5 -42 22 -17 24 6 0 -1 5 -16
11 -21 7 -32 6 -44 -4 -15 -12 -15 -11 -4 10 10 18 9 23 -3 28 -8 3 -24 1 -35
-6 -25 -13 -27 -7 -6 14 13 13 11 15 -16 21 -20 5 -29 12 -25 20 6 16 -24 28
-48 19 -9 -3 -16 -2 -16 4 0 6 6 12 13 15 6 2 -3 7 -21 11 -18 4 -30 11 -27
16 7 12 -28 22 -49 14 -10 -4 -16 -1 -16 9 0 8 6 17 13 20 6 2 -3 7 -21 11
-18 4 -30 12 -27 17 3 4 -6 11 -20 15 -13 3 -22 11 -18 17 4 6 -3 8 -20 5 -18
-3 -24 -1 -20 8 3 8 -5 16 -21 20 -14 3 -23 10 -21 15 8 11 -41 23 -56 13 -9
-5 -10 -2 -6 9 4 12 0 18 -18 23 -15 4 -22 11 -18 19 6 16 -39 31 -58 19 -8
-4 -9 -3 -5 4 4 7 1 12 -9 12 -9 0 -13 5 -10 10 4 6 -8 13 -25 17 -23 4 -28 8
-18 15 9 7 5 8 -14 5 -15 -2 -25 0 -22 4 3 5 0 9 -6 9 -7 0 -9 7 -6 16 5 13 2
15 -14 11 -11 -3 -18 -1 -14 4 3 5 -5 9 -18 9 -18 0 -20 2 -8 10 12 8 10 10
-8 10 -13 0 -21 4 -17 9 6 11 -31 25 -44 17 -5 -3 -7 3 -4 13 3 14 -2 21 -19
26 -12 4 -25 11 -28 14 -3 4 -18 14 -33 24 l-28 18 5 -28z m247 -313 c6 0 7
-5 3 -11 -5 -8 1 -10 19 -7 18 4 24 1 20 -9 -3 -7 2 -13 12 -13 9 0 13 -4 10
-10 -3 -5 6 -12 20 -16 13 -3 22 -11 18 -17 -4 -6 4 -8 20 -5 15 3 24 1 21 -3
-3 -5 7 -11 21 -15 17 -4 24 -11 21 -21 -4 -9 4 -16 24 -20 17 -3 27 -10 23
-16 -4 -6 2 -8 15 -5 12 4 20 2 16 -3 -3 -5 2 -9 11 -9 9 0 13 -5 10 -10 -4
-6 8 -13 25 -16 22 -5 29 -11 25 -22 -4 -11 0 -13 15 -9 11 3 18 1 14 -4 -3
-5 2 -9 11 -9 9 0 13 -5 10 -10 -4 -6 7 -13 24 -16 18 -4 28 -11 24 -17 -4 -6
2 -8 15 -5 12 4 20 2 16 -3 -3 -5 0 -9 6 -9 7 0 9 -7 6 -16 -5 -13 -2 -15 14
-11 11 3 18 1 14 -4 -3 -5 4 -9 16 -9 13 0 19 -4 14 -12 -5 -8 0 -9 14 -6 12
4 20 2 16 -3 -3 -5 0 -9 6 -9 6 0 8 -5 4 -12 -5 -8 0 -9 14 -6 12 4 20 2 16
-3 -3 -5 5 -9 16 -9 16 0 20 -5 16 -15 -3 -10 3 -17 19 -21 14 -3 22 -11 18
-17 -4 -6 2 -8 15 -5 12 4 20 2 16 -3 -3 -5 5 -9 17 -9 12 0 20 -3 16 -6 -8
-8 18 -34 33 -34 6 0 8 -4 5 -10 -7 -12 40 -24 56 -14 9 5 10 2 6 -9 -5 -12 1
-19 19 -23 14 -4 23 -9 20 -11 -8 -8 21 -33 37 -33 9 0 18 6 21 13 4 6 4 2 2
-11 -3 -17 2 -24 20 -28 13 -3 21 -10 19 -15 -7 -11 40 -23 55 -14 6 4 11 1 9
-6 -3 -27 1 -39 15 -39 8 0 17 6 20 13 4 6 4 2 2 -11 -3 -17 2 -24 19 -28 13
-3 29 -3 35 1 7 4 10 0 8 -11 -2 -14 3 -19 20 -18 12 0 21 -4 19 -10 -5 -15
18 -36 38 -36 9 0 13 -4 10 -10 -3 -5 1 -10 9 -10 9 0 16 -5 16 -11 0 -6 7 -8
16 -5 10 4 13 2 8 -6 -5 -8 2 -9 22 -4 21 5 25 4 14 -4 -12 -8 -11 -10 7 -10
15 0 21 -5 17 -15 -4 -9 3 -16 20 -21 14 -3 23 -11 19 -17 -4 -6 4 -8 23 -3
21 5 25 4 14 -4 -12 -8 -11 -10 8 -10 13 0 20 -4 17 -10 -3 -5 5 -12 19 -16
16 -4 23 -11 19 -20 -3 -8 1 -14 10 -14 8 0 17 -6 20 -12 3 -10 8 -9 22 2 17
14 18 13 12 -2 -4 -12 -1 -18 9 -18 8 0 12 -4 9 -10 -3 -5 6 -12 20 -16 13 -3
22 -11 18 -17 -4 -6 3 -8 20 -5 18 4 24 1 20 -9 -3 -7 0 -13 7 -13 6 0 8 -5 4
-12 -5 -8 0 -9 14 -6 12 4 20 2 16 -3 -3 -5 2 -9 11 -9 9 0 14 -4 11 -9 -4 -5
7 -12 24 -16 16 -4 30 -11 30 -17 0 -6 7 -5 16 3 15 12 16 11 10 -8 -6 -18 -3
-23 17 -28 16 -5 27 -16 30 -33 3 -15 7 -34 10 -42 2 -8 2 -12 0 -7 -3 4 -14
7 -26 7 -11 0 -17 3 -14 7 9 9 -44 35 -59 29 -8 -3 -11 0 -8 9 4 8 -5 15 -25
20 -20 4 -28 11 -25 20 4 9 -3 16 -20 21 -14 3 -23 11 -19 17 4 6 -4 8 -20 5
-15 -3 -24 -1 -21 3 3 5 0 9 -6 9 -6 0 -8 5 -4 12 5 8 0 9 -14 6 -12 -4 -20
-2 -16 3 3 5 -2 9 -10 9 -10 0 -13 6 -10 15 5 11 -3 17 -25 21 -17 4 -31 11
-31 16 0 6 -8 4 -17 -3 -15 -12 -16 -12 -10 4 5 14 0 19 -24 24 -22 4 -27 8
-17 14 9 6 7 9 -9 9 -15 0 -23 6 -23 17 0 15 -2 14 -16 -3 -15 -18 -15 -18
-11 4 5 19 0 24 -25 29 -19 4 -25 9 -17 13 7 5 0 10 -20 15 -19 4 -28 11 -25
17 5 7 0 9 -14 6 -12 -4 -20 -2 -16 3 3 5 -4 9 -15 9 -23 0 -29 16 -8 23 6 2
-3 7 -21 11 -19 5 -30 12 -26 18 5 7 0 9 -14 6 -12 -4 -20 -2 -16 3 3 5 -5 9
-18 9 -18 0 -20 2 -8 10 13 8 12 10 -2 10 -10 0 -18 5 -18 10 0 6 -7 10 -16
10 -9 0 -12 5 -8 12 5 8 0 9 -14 6 -12 -4 -20 -2 -16 3 3 5 0 9 -6 9 -6 0 -8
5 -4 11 5 8 -1 10 -19 7 -15 -3 -24 -1 -21 3 3 5 -2 9 -10 9 -9 0 -16 5 -16
11 0 5 -4 7 -10 4 -6 -3 -7 1 -4 9 4 11 0 16 -15 16 -12 0 -21 4 -21 10 0 5
-7 6 -17 3 -11 -4 -14 -3 -9 5 4 7 -3 14 -19 18 -13 3 -22 10 -19 15 3 5 -5 9
-18 9 -18 0 -20 2 -8 10 13 8 12 10 -2 10 -10 0 -18 5 -18 10 0 14 -27 12 -34
-2 -4 -7 -4 -3 -2 10 4 19 -1 24 -26 29 -18 3 -25 9 -18 13 8 5 2 10 -15 14
-14 4 -31 4 -36 0 -6 -3 -10 0 -8 7 3 28 -1 39 -16 39 -8 0 -15 -4 -15 -10 0
-5 -4 -10 -10 -10 -14 0 -12 28 3 33 6 2 -3 7 -21 11 -18 4 -30 12 -26 17 3 5
-2 9 -10 9 -9 0 -16 5 -16 11 0 8 -5 7 -15 -1 -9 -7 -19 -9 -23 -5 -4 4 -1 10
6 12 21 8 13 21 -18 28 -17 4 -28 11 -25 16 3 4 -6 11 -20 15 -13 3 -22 11
-18 17 4 6 -4 8 -20 5 -15 -3 -24 -1 -21 3 3 5 -2 9 -10 9 -9 0 -13 6 -10 13
4 12 -33 37 -57 37 -5 0 -15 5 -22 10 -52 44 -64 51 -83 47 -17 -3 -20 0 -16
15 2 10 0 18 -5 18 -6 0 -21 9 -34 21 -14 12 -33 19 -45 16 -16 -3 -21 0 -17
10 4 9 -3 16 -16 20 -11 3 -21 13 -21 22 -1 14 -2 14 -14 -1 -16 -22 -26 -23
-26 -3 0 8 6 15 13 16 6 0 2 5 -10 11 -13 6 -23 15 -23 21 0 5 -8 3 -17 -4
-11 -9 -14 -10 -9 -2 4 7 3 29 -3 49 -8 30 -8 35 5 30 9 -3 20 -6 25 -6z"/>
<path d="M11295 8869 c-27 -4 -137 -12 -244 -18 -122 -6 -196 -14 -201 -21 -4
-7 -78 -14 -202 -20 -107 -5 -201 -12 -209 -15 -8 -3 -104 -10 -214 -15 -194
-9 -436 -29 -444 -36 -2 -2 2 -11 10 -21 12 -14 12 -16 0 -8 -11 6 -13 3 -9
-13 4 -12 2 -20 -2 -17 -5 3 -11 -9 -14 -27 -2 -18 -10 -62 -16 -98 -7 -36
-15 -83 -17 -105 -3 -22 -9 -42 -12 -45 -13 -9 -53 -184 -82 -357 -7 -40 -15
-73 -19 -73 -4 0 -10 -28 -14 -62 -7 -69 -40 -148 -62 -148 -8 0 -14 -6 -14
-14 0 -8 -11 -17 -25 -20 -14 -4 -23 -11 -20 -15 3 -5 -5 -7 -17 -3 -14 3 -19
1 -14 -6 3 -6 -6 -13 -24 -17 -17 -4 -28 -11 -24 -16 3 -5 -2 -9 -11 -9 -11 0
-15 -5 -11 -16 3 -8 2 -12 -4 -9 -13 8 -52 -4 -45 -15 2 -4 -9 -10 -25 -13
-20 -4 -28 -11 -24 -20 3 -9 -3 -13 -18 -13 -19 1 -22 -4 -20 -23 3 -15 0 -21
-8 -16 -18 11 -60 -3 -54 -18 3 -9 -3 -13 -18 -13 -17 1 -22 -4 -20 -18 2 -11
-1 -15 -8 -11 -6 4 -22 4 -36 1 -19 -5 -24 -11 -19 -25 4 -13 0 -17 -17 -17
-17 1 -22 -4 -20 -18 2 -11 -1 -15 -8 -11 -15 9 -62 -3 -55 -14 2 -5 -7 -12
-21 -15 -20 -5 -24 -11 -18 -28 4 -14 3 -18 -5 -13 -16 9 -63 -3 -56 -14 2 -5
-7 -12 -20 -15 -14 -4 -24 -10 -21 -15 3 -4 -6 -6 -21 -3 -18 3 -24 1 -19 -7
4 -6 2 -11 -4 -11 -15 0 -41 -26 -33 -34 4 -3 -1 -6 -11 -6 -9 0 -15 -4 -12
-9 3 -4 -6 -6 -21 -3 -15 3 -24 1 -20 -5 3 -5 -9 -15 -28 -22 -23 -8 -32 -17
-28 -26 3 -10 -2 -15 -17 -15 -11 0 -19 -4 -16 -9 4 -5 -4 -7 -16 -3 -13 3
-19 1 -15 -5 4 -6 -4 -14 -18 -17 -14 -4 -23 -10 -20 -15 2 -5 -11 -12 -31
-16 -24 -4 -34 -11 -31 -19 4 -9 -9 -18 -34 -26 -27 -9 -38 -18 -35 -27 3 -8
1 -11 -4 -8 -14 9 -51 -4 -45 -16 4 -5 -1 -9 -10 -9 -20 0 -43 -21 -38 -36 2
-6 -7 -10 -19 -10 -17 1 -22 -4 -20 -18 2 -11 -1 -15 -8 -11 -15 10 -62 -3
-55 -15 3 -6 1 -10 -5 -10 -18 0 -37 -24 -32 -39 3 -9 0 -11 -7 -6 -16 9 -64
-3 -56 -14 2 -5 -7 -12 -20 -15 -14 -4 -23 -11 -20 -16 3 -6 -1 -10 -10 -10
-10 0 -15 -6 -12 -13 4 -10 -2 -13 -20 -9 -18 3 -24 1 -19 -7 4 -6 1 -11 -7
-11 -16 0 -59 -35 -51 -42 2 -3 -7 -3 -21 0 -20 3 -24 1 -19 -12 3 -9 1 -16
-6 -16 -6 0 -8 -4 -5 -10 3 -6 -1 -7 -9 -4 -17 6 -49 -19 -38 -30 3 -4 -1 -4
-11 0 -12 4 -17 1 -17 -11 0 -9 -5 -13 -11 -9 -8 5 -10 -4 -7 -28 2 -24 0 -34
-8 -31 -7 2 -15 -20 -22 -59 -7 -35 -16 -83 -21 -108 -6 -25 -10 -64 -11 -88
0 -24 -6 -49 -13 -57 -8 -8 -21 -69 -30 -147 -38 -313 -59 -453 -69 -459 -6
-4 -17 -53 -25 -110 -7 -57 -20 -153 -29 -214 -9 -60 -18 -131 -21 -157 -3
-27 -9 -48 -13 -48 -5 0 -11 -28 -13 -62 -6 -72 -33 -287 -42 -336 -5 -26 -3
-32 7 -27 10 6 11 5 1 -6 -7 -7 -13 -22 -13 -33 0 -13 3 -17 8 -9 4 7 54 13
132 16 69 3 168 15 220 26 105 21 240 41 283 41 15 0 27 4 27 9 0 5 24 11 53
15 28 3 97 12 152 21 55 8 147 21 205 29 176 24 200 28 200 36 0 4 24 10 53
14 28 3 99 13 157 21 58 8 143 19 190 25 127 15 192 42 174 71 -4 8 -3 9 5 5
17 -11 53 4 47 19 -3 9 0 12 9 9 21 -8 74 18 68 33 -3 7 2 13 12 13 9 0 14 4
11 9 -3 4 7 6 22 3 15 -3 24 -1 20 3 -4 4 10 16 32 27 25 13 37 24 33 34 -3 9
2 14 14 14 26 0 61 31 55 49 -3 8 0 11 6 7 15 -9 63 4 56 15 -3 5 2 9 11 9 11
0 15 5 12 14 -4 9 3 16 19 20 14 4 22 10 20 15 -3 5 8 11 24 14 21 5 28 11 24
21 -4 11 0 13 15 9 16 -4 20 -2 15 10 -4 11 3 17 27 22 20 5 27 10 20 15 -8 4
-1 9 18 13 20 4 29 11 25 20 -3 9 3 13 18 13 17 -1 22 4 20 17 -2 11 4 17 17
17 27 0 52 11 46 20 -3 4 6 11 20 14 14 4 25 10 25 15 0 5 14 12 31 16 20 5
29 11 25 21 -3 8 -1 14 5 14 6 0 7 5 4 10 -3 6 3 10 14 10 27 0 52 11 46 20
-3 4 6 11 20 14 16 4 22 11 19 21 -4 10 0 15 11 15 9 0 14 4 11 9 -3 4 6 6 21
3 18 -3 24 -1 19 7 -4 6 -1 11 9 11 9 0 14 4 11 9 -3 5 5 12 18 15 18 4 23 11
20 28 -2 13 -2 17 2 11 3 -7 14 -13 25 -13 18 0 23 10 20 39 -2 7 3 10 8 6 14
-8 53 4 46 15 -2 4 9 10 26 14 17 3 28 10 24 16 -3 5 1 10 10 10 12 0 15 6 10
21 -5 14 -3 19 3 15 14 -9 63 4 57 14 -3 4 6 11 20 14 16 4 22 11 19 20 -4 10
0 13 13 10 10 -2 25 0 33 6 13 9 13 11 0 20 -11 8 -8 9 12 4 21 -4 29 -1 38
16 6 12 9 28 6 37 -4 11 -2 13 9 9 9 -3 15 0 15 9 0 7 6 20 13 27 25 25 38 75
58 213 5 39 14 84 19 100 5 17 12 51 16 78 3 26 10 47 14 47 4 0 13 30 20 68
6 37 16 81 21 97 4 17 13 62 18 100 15 103 34 189 43 196 5 3 15 41 24 85 9
43 22 108 30 144 8 36 17 81 21 100 3 19 9 37 13 40 3 3 14 52 24 110 9 58 21
119 26 135 5 17 14 66 20 110 18 128 22 145 30 145 4 0 10 15 14 33 55 285 78
392 86 397 8 6 15 38 35 160 47 292 52 320 66 320 5 0 9 7 9 16 0 11 -6 14
-21 9 -18 -6 -20 -5 -10 14 7 12 16 21 21 21 4 0 13 23 19 50 14 65 14 65 -4
50 -9 -7 -19 -10 -22 -6 -4 4 -1 11 7 16 18 12 -31 11 -105 -1z m-81 -216 c-4
-16 -10 -30 -14 -33 -4 -3 -10 -32 -14 -65 -4 -33 -11 -73 -16 -90 -5 -16 -21
-97 -35 -180 -14 -82 -30 -152 -34 -155 -5 -3 -13 -30 -18 -60 -28 -151 -68
-336 -74 -340 -10 -7 -17 -41 -29 -125 -5 -38 -17 -101 -26 -140 -8 -38 -21
-106 -27 -150 -6 -44 -16 -85 -23 -92 -7 -7 -15 -40 -19 -73 -4 -33 -10 -60
-14 -60 -4 0 -17 -64 -31 -142 -13 -79 -27 -146 -32 -149 -5 -3 -14 -41 -19
-84 -6 -43 -12 -82 -15 -87 -5 -7 -14 -52 -46 -228 -7 -36 -18 -71 -25 -78 -7
-7 -13 -21 -13 -30 0 -44 -35 -199 -49 -216 -9 -10 -26 -22 -39 -27 -13 -5
-21 -13 -18 -18 3 -5 -6 -12 -20 -15 -17 -5 -24 -12 -20 -21 3 -10 -1 -15 -13
-15 -27 0 -52 -11 -46 -20 3 -4 -7 -11 -20 -14 -14 -4 -23 -11 -20 -16 3 -6
-1 -10 -10 -10 -10 0 -15 -6 -12 -13 4 -10 -2 -13 -20 -9 -18 3 -24 1 -19 -7
4 -6 2 -11 -4 -11 -6 0 -9 -4 -6 -9 4 -5 -4 -7 -16 -3 -14 3 -19 1 -14 -6 3
-6 -6 -13 -24 -17 -17 -4 -28 -11 -24 -16 3 -5 -2 -9 -11 -9 -11 0 -15 -5 -12
-14 4 -10 0 -12 -15 -8 -14 3 -19 1 -14 -6 3 -6 -6 -13 -24 -17 -17 -4 -28
-10 -25 -15 3 -4 -6 -11 -19 -14 -18 -4 -23 -11 -20 -28 2 -13 2 -17 -2 -10
-3 6 -14 12 -25 12 -18 0 -23 -10 -20 -39 2 -7 -3 -10 -8 -6 -14 8 -53 -4 -46
-15 3 -5 -8 -11 -25 -15 -17 -4 -28 -11 -24 -16 3 -5 -2 -9 -11 -9 -11 0 -15
-6 -11 -18 5 -14 1 -18 -16 -18 -16 1 -22 -4 -20 -15 2 -13 -4 -15 -24 -11
-17 3 -25 1 -21 -5 4 -6 -4 -14 -18 -17 -15 -4 -22 -11 -19 -20 4 -10 -5 -16
-28 -22 -18 -4 -27 -9 -20 -11 24 -9 12 -23 -14 -17 -18 5 -25 3 -21 -3 4 -6
-4 -14 -18 -17 -15 -4 -22 -11 -19 -20 3 -9 -5 -15 -26 -20 -17 -3 -29 -10
-25 -16 3 -5 -1 -10 -10 -10 -9 0 -14 -4 -11 -9 4 -5 -4 -7 -16 -3 -13 3 -19
1 -15 -5 4 -6 -6 -13 -23 -16 -20 -4 -28 -11 -24 -20 3 -10 -4 -17 -21 -21
-14 -4 -23 -11 -20 -16 3 -6 -1 -10 -10 -10 -9 0 -14 -4 -11 -9 3 -5 -8 -11
-25 -15 -17 -3 -28 -10 -24 -16 3 -6 0 -7 -9 -4 -10 4 -16 1 -16 -10 0 -8 -12
-19 -26 -22 -16 -4 -22 -9 -14 -14 7 -4 -1 -10 -20 -13 -17 -4 -29 -11 -25
-17 3 -5 -1 -10 -10 -10 -9 0 -14 -4 -11 -9 3 -4 -7 -6 -22 -5 -15 2 -21 1
-14 -2 17 -8 15 -24 -4 -24 -9 0 -12 -5 -8 -12 5 -7 3 -8 -5 -4 -7 5 -25 3
-40 -3 -26 -11 -79 -20 -266 -43 -49 -6 -93 -15 -96 -20 -3 -5 -55 -16 -115
-24 -60 -9 -154 -22 -209 -30 -55 -8 -140 -20 -190 -26 -49 -6 -93 -15 -96
-20 -4 -6 -58 -16 -120 -24 -289 -34 -460 -63 -472 -79 -9 -12 1 128 13 170 5
17 11 70 15 120 3 49 11 92 16 95 5 3 13 42 19 85 6 44 15 107 20 140 36 215
50 313 50 351 0 24 4 44 10 44 10 0 11 7 35 185 26 197 57 380 65 385 5 3 11
26 15 53 4 26 11 50 16 52 4 3 6 12 3 20 -4 10 0 12 17 8 14 -4 20 -2 16 4 -4
6 11 15 32 22 33 9 38 15 33 33 -3 14 -2 19 7 14 15 -10 53 3 46 15 -4 5 3 9
15 9 12 0 19 4 16 9 -3 5 5 12 18 15 18 4 23 11 20 28 -2 13 -2 17 2 11 7 -15
34 -17 34 -3 0 6 7 10 16 10 8 0 13 4 10 9 -3 5 6 12 19 15 14 4 23 11 20 15
-3 5 9 13 27 17 18 4 27 9 21 11 -20 7 -15 23 6 23 28 0 52 11 46 20 -3 5 8
11 25 15 17 4 28 11 24 16 -3 5 2 9 10 9 27 0 67 23 62 36 -3 7 7 14 25 18 22
4 27 9 22 22 -4 12 -3 15 5 10 15 -9 54 2 47 14 -2 4 9 10 26 14 26 5 29 9 24
27 -5 15 -4 19 4 15 14 -9 53 3 46 14 -2 4 9 10 25 13 23 5 28 10 23 23 -4 12
-3 15 5 10 18 -11 54 4 48 19 -3 8 6 15 25 19 19 3 27 10 23 19 -3 9 3 13 18
13 13 -1 22 4 20 12 -1 6 7 12 19 12 20 0 59 29 42 31 -4 1 3 4 17 8 14 4 24
13 22 19 -1 7 7 12 18 12 32 0 69 21 63 36 -3 9 1 14 12 14 9 0 14 4 11 9 -3
4 6 6 21 3 16 -3 24 -1 20 5 -4 6 5 14 18 17 14 4 23 11 20 16 -3 6 1 10 10
10 10 0 13 5 9 12 -4 7 -3 8 5 4 19 -12 64 3 58 19 -4 8 3 15 18 19 18 5 22
11 18 23 -4 11 -3 14 6 9 15 -10 64 2 56 13 -2 5 7 12 21 15 16 4 24 12 21 20
-4 9 2 11 20 8 17 -3 24 -1 20 5 -4 6 5 14 18 17 14 4 23 11 20 16 -3 6 1 10
10 10 9 0 14 4 11 9 -3 4 6 6 19 3 19 -3 24 -1 20 11 -4 10 2 17 20 21 14 4
23 11 20 15 -3 5 8 12 24 16 22 5 28 11 24 22 -4 11 -3 14 6 9 6 -4 19 -5 27
-2 11 4 12 10 5 25 -9 17 -8 18 12 13 20 -5 21 -4 8 12 -13 16 -12 17 14 14
26 -3 30 1 46 47 9 28 27 110 38 184 11 74 24 137 29 140 5 3 14 33 20 66 6
33 25 125 42 205 16 80 30 155 30 168 0 12 5 22 10 22 6 0 10 11 10 24 0 32
13 35 236 46 104 5 214 14 243 20 30 5 103 10 162 10 60 0 109 4 109 9 0 10
261 31 488 39 l52 2 -6 -27z"/>
<path d="M10593 7975 c-7 -8 -13 -17 -13 -20 0 -4 -7 -13 -15 -21 -8 -9 -15
-12 -15 -8 0 4 -8 -2 -18 -13 -9 -11 -26 -22 -37 -24 -12 -3 -21 -14 -23 -27
-2 -12 -8 -20 -13 -17 -5 4 -9 1 -9 -4 0 -6 -7 -11 -16 -11 -8 0 -13 -4 -10
-9 3 -5 -8 -11 -25 -15 -17 -3 -28 -10 -24 -16 3 -5 -1 -10 -9 -10 -8 0 -14
-6 -12 -12 1 -7 1 -10 -1 -5 -9 14 -35 7 -29 -8 3 -10 -1 -15 -12 -15 -15 0
-15 -2 -2 -10 11 -8 7 -9 -14 -4 -21 5 -27 4 -22 -5 4 -6 1 -11 -9 -11 -9 0
-14 -4 -11 -9 4 -5 -8 -13 -26 -17 -18 -4 -27 -9 -20 -11 20 -7 14 -23 -9 -23
-13 0 -18 -4 -13 -12 4 -7 3 -8 -5 -4 -14 9 -53 -2 -46 -14 2 -4 -9 -10 -25
-13 -23 -5 -28 -10 -23 -24 6 -16 5 -16 -10 -4 -11 9 -17 10 -17 2 0 -6 -7
-11 -16 -11 -10 0 -14 -6 -11 -14 4 -9 -4 -16 -24 -20 -17 -3 -28 -10 -25 -15
3 -5 -4 -7 -16 -3 -14 3 -19 1 -14 -6 3 -6 -6 -13 -23 -17 -20 -4 -28 -11 -24
-21 3 -9 -1 -14 -12 -14 -9 0 -14 -4 -11 -9 4 -5 -4 -7 -16 -3 -14 3 -19 2
-14 -6 4 -7 2 -12 -4 -12 -6 0 -9 -4 -6 -9 3 -4 -6 -6 -21 -3 -18 3 -24 1 -19
-7 4 -6 1 -11 -9 -11 -9 0 -14 -4 -11 -9 4 -5 -3 -7 -14 -4 -16 4 -19 2 -14
-11 3 -9 1 -16 -6 -16 -6 0 -9 -4 -6 -9 3 -4 -6 -6 -21 -3 -16 3 -24 1 -20 -5
4 -6 -5 -14 -18 -17 -14 -4 -23 -11 -20 -16 3 -6 -1 -10 -10 -10 -10 0 -13 -5
-9 -12 4 -7 3 -8 -5 -4 -19 12 -64 -3 -58 -19 4 -8 -4 -15 -19 -19 -14 -4 -22
-10 -19 -15 2 -5 -11 -12 -30 -15 -20 -4 -33 -11 -30 -15 3 -5 -7 -12 -21 -15
-17 -5 -24 -12 -20 -21 4 -10 -2 -15 -17 -15 -18 0 -19 -2 -7 -10 11 -8 7 -9
-14 -4 -19 5 -27 3 -23 -3 4 -6 -5 -14 -18 -17 -14 -4 -23 -11 -20 -16 3 -6
-1 -10 -10 -10 -19 0 -47 -25 -38 -34 4 -3 -1 -6 -11 -6 -9 0 -15 -4 -12 -9 4
-5 -4 -7 -16 -3 -14 3 -19 2 -14 -6 5 -8 -1 -12 -14 -12 -12 0 -19 -4 -16 -9
3 -5 -6 -12 -20 -15 -17 -5 -24 -12 -20 -21 3 -9 -1 -15 -10 -15 -8 0 -13 -4
-10 -9 3 -4 -6 -6 -21 -3 -16 3 -24 1 -20 -5 4 -6 -5 -14 -18 -17 -14 -4 -23
-11 -20 -16 3 -6 -1 -10 -9 -10 -8 0 -14 -6 -12 -12 1 -7 1 -10 -1 -5 -3 4
-14 7 -25 7 -14 0 -18 -5 -14 -15 3 -8 1 -15 -5 -15 -6 0 -8 -4 -5 -9 4 -5 -4
-7 -16 -3 -14 3 -19 1 -14 -6 3 -6 -6 -13 -25 -17 -23 -5 -28 -9 -18 -16 11
-6 8 -9 -8 -9 -13 0 -21 -5 -19 -12 1 -7 1 -10 -1 -5 -8 14 -35 7 -30 -7 4
-10 -4 -17 -25 -21 -19 -5 -26 -10 -19 -15 8 -4 2 -9 -17 -13 -25 -5 -29 -10
-25 -29 5 -23 5 -23 -10 -3 -15 18 -16 18 -17 3 0 -12 -8 -18 -22 -18 -17 0
-19 -3 -10 -9 10 -6 5 -10 -17 -14 -24 -5 -29 -10 -24 -24 5 -14 3 -16 -7 -6
-17 16 -39 -5 -32 -32 6 -20 5 -20 -14 -1 -17 18 -19 18 -22 3 -2 -9 -10 -17
-18 -17 -8 0 -13 -4 -10 -9 3 -5 -5 -12 -19 -15 -17 -4 -22 -11 -18 -22 5 -14
3 -15 -15 -5 -12 7 -22 8 -22 3 0 -6 -9 -12 -20 -15 -12 -3 -20 -14 -20 -27 0
-11 -4 -18 -10 -15 -5 3 -10 -1 -10 -9 0 -9 -6 -13 -13 -10 -27 10 -45 -65
-68 -276 -6 -58 -12 -115 -14 -127 -2 -12 3 -24 11 -27 8 -3 14 -1 14 5 0 6 4
8 9 5 5 -3 11 1 15 9 3 8 12 12 21 9 8 -4 15 -1 15 7 0 7 3 10 6 6 7 -7 34 17
34 31 0 5 18 14 40 21 22 6 40 16 40 21 0 5 9 12 21 15 11 4 18 12 16 19 -4 9
2 11 17 9 15 -3 33 6 55 26 18 17 43 31 55 31 15 0 17 3 8 9 -10 6 -4 10 18
15 20 4 34 13 37 26 3 11 16 23 29 26 26 7 31 19 12 28 -7 3 -2 3 12 0 17 -3
34 2 49 15 13 12 30 21 38 21 17 0 17 27 1 33 -7 3 1 4 17 4 23 -2 30 2 29 15
-1 10 2 15 7 13 4 -3 20 -3 34 1 17 4 23 9 15 14 -7 4 1 10 20 14 22 4 30 10
27 20 -4 10 0 12 15 8 13 -3 19 -1 15 5 -4 6 6 13 24 17 17 3 28 10 25 15 -3
5 5 12 18 15 18 4 23 11 20 28 -2 13 -2 17 2 11 3 -7 12 -13 21 -13 16 0 45
25 37 33 -3 2 6 7 20 11 18 4 24 11 19 23 -4 11 -3 14 6 9 16 -10 63 2 56 14
-3 6 -1 10 5 10 16 0 37 23 33 35 -2 6 9 11 24 10 22 0 27 4 25 19 -2 11 1 15
7 11 17 -10 51 4 45 19 -3 9 6 15 25 19 24 5 29 10 24 23 -4 12 -3 15 5 10 15
-9 54 2 47 14 -2 4 9 10 25 13 21 5 28 11 24 22 -4 10 0 15 11 15 9 0 14 4 11
9 -4 5 4 7 16 3 13 -3 19 -1 15 5 -4 6 6 13 24 17 17 3 28 10 24 16 -3 5 1 10
10 10 9 0 14 4 11 9 -4 5 3 7 14 4 16 -4 19 -2 14 11 -4 10 -1 16 9 16 27 0
66 22 61 35 -3 7 4 11 18 11 17 -1 22 4 20 18 -2 11 1 15 8 11 18 -11 63 4 57
20 -4 8 3 15 18 19 18 5 22 11 18 23 -4 11 -3 14 6 9 16 -10 63 2 56 14 -3 6
-1 10 5 10 15 0 41 26 33 34 -4 3 4 6 16 6 12 0 20 4 17 9 -4 5 4 7 16 3 14
-3 19 -2 14 7 -5 7 4 13 24 18 22 4 28 8 18 14 -10 7 -9 9 5 9 10 0 29 10 42
23 40 37 54 47 64 47 6 0 21 11 35 25 14 14 30 25 36 25 6 0 9 4 6 9 -3 5 8
11 24 14 23 5 28 10 23 24 -6 16 -5 16 10 4 12 -9 17 -10 17 -2 0 7 5 9 10 6
6 -4 13 8 16 25 5 21 11 29 20 26 8 -3 14 1 14 10 0 8 4 13 9 10 14 -9 46 118
57 222 3 34 9 62 14 62 4 0 13 35 19 78 7 42 15 87 18 100 4 18 1 22 -18 22
-13 -1 -30 -7 -36 -15z m-168 -324 c9 -30 -5 -69 -27 -74 -13 -4 -18 -11 -15
-20 3 -9 -4 -19 -19 -26 -14 -6 -23 -15 -20 -20 3 -4 -7 -6 -22 -4 -20 3 -23
2 -13 -5 11 -8 9 -11 -10 -14 -17 -2 -24 -9 -23 -24 0 -15 -5 -20 -16 -17 -10
3 -24 -2 -31 -10 -8 -8 -25 -18 -38 -22 -12 -4 -20 -12 -18 -18 3 -7 -7 -12
-25 -13 -34 -1 -48 -12 -29 -23 8 -6 3 -10 -18 -14 -24 -5 -29 -10 -24 -23 4
-11 3 -15 -5 -10 -6 3 -23 4 -37 0 -17 -4 -23 -9 -15 -14 7 -4 -1 -10 -20 -14
-23 -4 -31 -10 -26 -21 3 -9 0 -15 -10 -15 -8 0 -13 -4 -10 -9 3 -4 -7 -6 -22
-4 -19 3 -23 2 -14 -5 10 -7 5 -11 -18 -15 -17 -4 -29 -11 -25 -17 3 -5 -1
-10 -9 -10 -8 0 -14 -6 -12 -12 1 -7 1 -10 -1 -5 -7 11 -43 9 -43 -3 0 -5 6
-10 13 -11 6 0 -3 -5 -21 -10 -18 -5 -30 -14 -27 -19 4 -6 -1 -10 -10 -10 -9
0 -14 -4 -11 -9 3 -4 -7 -6 -22 -4 -21 4 -24 2 -12 -6 13 -9 12 -11 -4 -11
-11 0 -16 -5 -13 -14 4 -10 0 -12 -15 -8 -13 3 -19 1 -15 -5 4 -6 -4 -14 -18
-17 -14 -4 -23 -11 -20 -16 3 -6 -3 -10 -15 -10 -12 0 -19 -4 -16 -9 4 -5 -4
-7 -16 -3 -14 3 -19 2 -14 -6 4 -7 2 -12 -4 -12 -15 0 -41 -26 -33 -34 4 -3
-4 -6 -16 -6 -14 0 -20 -4 -15 -12 4 -7 3 -8 -5 -4 -14 9 -53 -3 -46 -14 3 -5
-8 -11 -24 -15 -20 -4 -28 -11 -24 -21 3 -9 -1 -14 -12 -14 -9 0 -14 -4 -11
-9 4 -5 -4 -7 -16 -3 -14 3 -19 1 -14 -6 3 -6 -6 -13 -24 -17 -17 -4 -28 -11
-24 -16 3 -5 -2 -9 -11 -9 -9 0 -14 -4 -11 -9 4 -5 -3 -7 -14 -4 -16 4 -19 2
-14 -11 3 -9 1 -16 -6 -16 -6 0 -9 -4 -6 -9 3 -4 -6 -6 -21 -3 -16 3 -24 1
-20 -5 4 -6 -5 -14 -18 -17 -14 -4 -23 -11 -20 -16 3 -6 -1 -10 -9 -10 -8 0
-14 -6 -12 -12 1 -7 1 -10 -1 -5 -9 14 -45 8 -40 -7 4 -9 -3 -16 -19 -20 -14
-4 -22 -11 -19 -15 3 -5 -8 -12 -24 -16 -22 -5 -28 -11 -24 -22 4 -11 2 -14
-5 -9 -18 11 -54 -4 -48 -19 3 -9 -6 -16 -25 -20 -16 -4 -27 -10 -24 -15 3 -4
-7 -11 -20 -14 -14 -4 -23 -11 -20 -16 3 -6 -1 -10 -9 -10 -8 0 -14 -6 -12
-12 1 -7 1 -10 -1 -5 -3 4 -14 7 -25 7 -14 0 -18 -5 -14 -15 3 -8 1 -15 -5
-15 -6 0 -8 -4 -5 -9 4 -5 -4 -7 -16 -3 -14 3 -19 1 -14 -6 3 -6 -6 -13 -25
-17 -23 -5 -28 -9 -18 -16 10 -6 8 -9 -9 -9 -12 0 -30 -9 -39 -20 -10 -11 -23
-20 -31 -20 -7 0 -10 -4 -7 -10 3 -5 -1 -10 -9 -10 -8 0 -27 -5 -41 -12 -19
-8 -24 -17 -20 -32 3 -12 2 -15 -1 -8 -3 6 -12 12 -20 12 -18 0 -18 21 0 45 8
11 12 24 9 31 -2 6 5 14 16 17 15 4 19 10 14 23 -4 12 -3 15 6 10 15 -10 64 2
56 13 -2 5 6 12 19 15 17 4 23 11 19 24 -3 14 2 18 24 17 16 0 27 5 26 11 -1
7 11 14 28 18 17 3 28 10 25 15 -4 5 7 12 23 16 23 5 28 10 23 27 -3 15 -1 19
7 14 14 -9 53 3 46 14 -3 5 8 11 25 15 17 4 28 11 24 16 -3 5 2 9 11 9 9 0 14
4 11 9 -4 5 3 7 14 4 15 -4 19 -2 14 10 -4 11 3 17 25 22 17 4 29 11 25 16 -3
5 2 9 11 9 9 0 14 4 11 9 -4 5 4 7 16 3 14 -3 19 -2 14 6 -4 7 -3 12 3 12 6 0
9 6 7 13 -1 6 -1 9 1 5 9 -15 45 -9 40 6 -4 9 3 16 19 20 14 4 22 11 19 16 -3
6 1 10 10 10 9 0 14 4 11 9 -3 4 6 6 21 3 16 -3 24 -1 20 5 -4 6 5 14 19 17
17 5 24 12 20 21 -3 9 5 16 25 20 16 4 27 10 24 15 -2 4 9 10 26 14 17 3 28
10 25 15 -4 5 8 12 24 16 23 5 29 11 25 24 -4 13 0 17 17 17 17 -1 22 4 20 18
-2 10 1 15 7 12 13 -9 62 4 56 14 -3 4 7 11 21 14 16 4 24 12 21 20 -4 10 5
16 29 21 19 3 32 10 29 14 -3 5 7 12 20 15 14 4 23 11 20 16 -3 6 1 10 10 10
10 0 15 6 12 13 -4 10 2 13 20 9 17 -3 24 -1 20 5 -4 6 5 14 18 17 14 4 23 11
20 16 -3 6 1 10 10 10 9 0 14 4 11 9 -3 4 6 6 21 3 18 -3 24 -1 19 7 -4 6 -2
11 4 11 15 0 41 26 33 34 -4 3 1 6 11 6 9 0 15 4 12 9 -3 4 6 6 21 3 18 -3 24
-1 19 7 -4 6 -2 11 4 11 6 0 8 5 4 12 -4 7 -3 8 5 4 17 -11 51 3 45 18 -3 9 6
15 25 19 24 5 29 10 24 23 -4 12 -3 15 5 10 15 -9 54 2 47 14 -2 4 8 10 24 13
24 5 28 10 24 28 -4 15 -3 20 5 15 15 -9 83 14 76 26 -3 4 2 8 11 8 9 0 14 4
11 9 -4 5 4 7 16 3 14 -3 19 -2 14 6 -4 7 -1 12 8 12 9 0 16 5 16 10 0 6 7 10
16 10 8 0 13 4 10 9 -3 5 5 12 19 15 16 4 22 11 19 21 -5 11 -2 13 9 9 9 -3
24 -1 34 5 10 6 12 11 6 11 -15 0 -18 30 -4 30 5 0 12 -9 16 -19z"/>
<path d="M10460 7132 c-14 -9 -26 -20 -28 -24 -2 -5 -10 -8 -18 -8 -8 0 -14
-8 -14 -17 0 -15 -2 -16 -10 -3 -8 13 -10 12 -10 -4 0 -11 -3 -17 -6 -13 -3 3
-14 -3 -25 -14 -10 -10 -26 -19 -34 -19 -8 0 -15 -4 -15 -9 0 -5 -14 -14 -31
-21 -22 -10 -29 -18 -26 -32 3 -10 1 -15 -5 -12 -13 8 -60 -5 -53 -15 2 -5 -6
-12 -20 -15 -18 -5 -23 -11 -18 -24 6 -15 5 -16 -12 -2 -14 11 -19 12 -22 3
-3 -7 -11 -13 -20 -13 -8 0 -13 -6 -10 -12 2 -8 -13 -20 -37 -30 -23 -9 -35
-17 -28 -17 6 -1 12 -6 12 -11 0 -6 -11 -8 -25 -4 -18 4 -27 1 -31 -10 -3 -9
-12 -16 -20 -16 -8 0 -14 -4 -14 -10 0 -5 -8 -10 -17 -10 -15 0 -16 -2 -3 -10
12 -8 11 -10 -6 -10 -12 0 -31 -9 -44 -20 -13 -11 -32 -20 -44 -21 -12 0 -15
-3 -8 -6 20 -8 14 -20 -14 -27 -15 -4 -32 -12 -40 -19 -34 -30 -44 -37 -67
-43 -15 -3 -24 -11 -21 -18 3 -8 -11 -18 -36 -26 -22 -7 -40 -17 -40 -22 0 -4
-6 -8 -13 -8 -8 0 -24 -9 -37 -20 -13 -11 -29 -20 -37 -20 -7 0 -13 -7 -13
-15 0 -8 -11 -17 -25 -21 -14 -3 -23 -10 -20 -14 3 -5 -8 -11 -25 -15 -16 -4
-30 -10 -30 -15 0 -5 -10 -12 -22 -16 -13 -4 -30 -15 -38 -24 -8 -9 -25 -20
-38 -24 -14 -5 -21 -13 -18 -21 3 -9 0 -12 -8 -9 -7 3 -23 0 -37 -5 -13 -5
-18 -10 -11 -10 24 -2 12 -19 -18 -24 -23 -5 -28 -10 -23 -24 5 -14 3 -16 -7
-6 -10 9 -16 8 -27 -3 -8 -7 -12 -18 -8 -24 3 -6 -1 -7 -10 -4 -21 8 -75 -15
-75 -32 0 -8 -5 -14 -11 -14 -5 0 -8 -4 -5 -9 3 -4 -6 -6 -21 -3 -16 3 -24 1
-20 -5 4 -6 -5 -14 -18 -17 -14 -4 -23 -11 -20 -16 3 -6 -1 -10 -9 -10 -8 0
-14 -6 -12 -12 1 -7 1 -10 -1 -5 -9 14 -45 8 -40 -7 4 -9 -3 -16 -19 -20 -14
-4 -22 -11 -19 -16 3 -6 -1 -10 -10 -10 -9 0 -14 -4 -11 -9 3 -4 -6 -6 -21 -3
-16 3 -24 1 -20 -5 4 -6 -5 -14 -19 -17 -17 -5 -24 -12 -20 -21 3 -9 -5 -16
-24 -20 -21 -5 -27 -11 -23 -22 4 -11 2 -14 -5 -9 -16 10 -54 -3 -47 -15 4 -5
-1 -9 -9 -9 -9 0 -16 -4 -16 -10 0 -5 -7 -10 -15 -10 -8 0 -12 -6 -9 -13 3 -9
-3 -13 -18 -13 -17 1 -22 -4 -20 -18 2 -10 -1 -15 -7 -12 -5 4 -21 4 -34 1
-19 -5 -24 -12 -21 -28 2 -12 2 -16 -2 -9 -3 6 -12 12 -20 12 -14 0 -18 -12
-15 -39 2 -7 -2 -10 -8 -7 -13 9 -62 -4 -56 -14 3 -4 -6 -11 -19 -14 -19 -5
-23 -11 -19 -28 5 -23 5 -23 -10 -3 -15 18 -16 18 -17 3 0 -21 -16 -24 -24 -5
-3 6 -4 -1 -2 -16 2 -15 1 -25 -2 -23 -9 10 -42 -37 -52 -74 -6 -20 -13 -59
-17 -86 -3 -27 -10 -52 -16 -55 -5 -4 -13 -24 -18 -45 -9 -45 -35 -157 -45
-196 -5 -22 -3 -28 11 -28 18 0 45 23 45 39 0 6 9 11 20 11 11 0 20 5 20 11 0
5 5 7 10 4 6 -3 10 -1 10 4 0 6 7 11 15 11 8 0 15 4 15 9 0 5 11 12 25 15 14
4 25 13 25 21 0 7 9 17 20 20 11 3 20 10 20 15 0 5 14 11 30 15 17 4 28 11 25
15 -3 5 13 14 35 21 39 12 52 32 28 43 -7 3 -4 4 8 1 21 -5 78 17 68 27 -3 3
11 9 30 12 25 5 34 11 29 21 -3 8 0 15 7 15 6 0 9 4 6 9 -4 5 4 7 16 3 13 -3
19 -1 15 5 -4 6 6 13 24 17 17 3 28 10 24 16 -3 5 0 10 8 10 11 0 13 7 10 23
-5 22 -5 22 10 2 15 -18 16 -18 17 -2 0 11 8 17 23 17 16 0 18 3 9 9 -10 6 -4
10 18 14 17 4 29 11 25 17 -3 5 1 10 10 10 9 0 14 4 11 9 -3 4 7 6 22 4 21 -4
24 -2 12 6 -13 9 -12 11 4 11 11 0 16 5 13 14 -4 10 0 12 15 8 13 -3 19 -1 15
5 -4 6 4 14 18 17 14 4 23 11 20 16 -3 6 3 10 15 10 12 0 19 4 16 9 -4 5 4 7
16 3 14 -3 19 -2 14 6 -4 7 -2 12 4 12 15 0 41 26 33 34 -4 3 4 6 16 6 12 0
20 4 17 9 -4 5 4 7 16 3 13 -3 19 -1 15 5 -4 6 4 14 18 17 14 4 23 11 20 16
-3 6 1 10 10 10 22 0 43 22 37 39 -3 8 0 11 6 7 6 -4 23 -4 37 0 17 4 23 9 15
14 -7 4 0 10 18 13 24 5 29 10 25 25 -3 15 1 19 19 18 17 -1 22 4 20 17 -3 16
0 17 17 7 14 -7 21 -7 21 0 0 5 7 10 15 10 9 0 12 6 8 18 -5 13 -3 14 7 5 14
-13 39 3 35 22 -1 5 0 7 2 3 9 -15 45 -9 40 6 -4 9 3 16 19 20 14 4 22 11 19
16 -3 6 1 10 10 10 9 0 14 4 11 9 -3 4 6 6 21 3 16 -3 24 -1 20 5 -4 6 5 14
19 17 17 5 24 12 20 21 -3 9 1 15 10 15 9 0 12 5 8 12 -4 7 -3 8 5 4 15 -10
64 2 56 13 -2 5 6 12 20 15 22 6 23 9 15 34 -9 24 -8 25 4 10 7 -10 19 -18 25
-18 15 0 42 26 35 33 -3 2 7 8 21 11 14 4 23 11 20 16 -3 6 3 10 15 10 12 0
19 4 16 9 -4 5 3 7 14 4 15 -4 19 -2 15 10 -4 10 2 17 20 21 14 4 23 11 20 16
-3 6 3 10 15 10 12 0 19 4 16 9 -4 5 4 7 16 3 14 -3 19 -2 14 6 -4 7 -2 12 4
12 6 0 9 4 6 9 -4 5 3 7 14 4 15 -4 19 -2 15 9 -4 11 3 17 25 22 17 3 29 10
25 16 -3 5 1 10 10 10 9 0 14 4 11 9 -3 4 7 6 22 4 19 -3 23 -2 14 5 -10 7 -6
11 17 15 22 5 29 11 25 22 -4 10 0 15 11 15 9 0 14 4 11 9 -3 4 7 6 22 4 21
-4 24 -2 12 6 -12 9 -11 11 8 11 13 0 21 4 18 9 -3 5 3 11 14 14 13 3 20 14
20 29 0 16 3 19 9 10 5 -9 10 0 15 27 3 23 10 41 15 41 5 0 16 37 25 83 48
247 58 284 80 299 6 5 2 8 -9 7 -11 0 -31 -8 -45 -17z m-200 -347 c0 -14 -5
-25 -11 -25 -6 0 -9 -6 -6 -13 4 -10 -2 -13 -21 -10 -19 3 -23 2 -14 -5 10 -7
6 -11 -17 -15 -21 -5 -29 -11 -25 -21 4 -10 -5 -16 -28 -22 -18 -4 -27 -9 -20
-11 20 -7 14 -25 -7 -18 -22 7 -53 -4 -46 -15 3 -5 -9 -12 -27 -16 -18 -4 -27
-9 -20 -11 24 -9 13 -32 -15 -30 -22 2 -27 -2 -25 -17 2 -10 -1 -15 -7 -12 -5
4 -22 4 -36 0 -17 -4 -23 -9 -15 -14 7 -4 0 -10 -18 -13 -25 -5 -29 -10 -25
-28 4 -15 2 -20 -5 -15 -6 4 -23 4 -37 0 -17 -4 -23 -9 -15 -14 7 -4 -1 -10
-20 -13 -17 -4 -29 -11 -25 -17 3 -5 -1 -10 -10 -10 -9 0 -14 -4 -11 -9 3 -4
-7 -6 -22 -5 -15 2 -21 1 -14 -2 21 -10 13 -21 -19 -28 -17 -3 -28 -10 -24
-16 3 -5 -1 -10 -10 -10 -9 0 -14 -4 -11 -9 3 -4 -7 -6 -22 -4 -19 3 -23 2
-14 -5 10 -7 5 -11 -18 -16 -23 -4 -31 -10 -26 -21 3 -9 0 -15 -10 -15 -9 0
-12 -5 -8 -12 4 -7 3 -8 -5 -4 -15 10 -64 -2 -56 -13 2 -5 -6 -12 -19 -15 -18
-4 -23 -11 -20 -28 2 -13 2 -17 -2 -10 -3 6 -12 12 -21 12 -16 0 -45 -25 -37
-33 3 -2 -7 -7 -21 -11 -22 -6 -24 -9 -15 -27 10 -18 9 -19 -8 -8 -21 13 -57
5 -48 -10 3 -5 -3 -7 -14 -4 -16 4 -19 2 -14 -11 4 -11 1 -16 -11 -16 -9 0
-14 -4 -11 -9 3 -4 -6 -6 -21 -3 -18 3 -24 1 -19 -7 4 -6 2 -11 -4 -11 -6 0
-9 -4 -6 -9 4 -5 -4 -7 -16 -3 -14 3 -19 1 -14 -6 4 -6 -7 -13 -26 -18 -18 -4
-27 -9 -20 -11 20 -7 14 -23 -9 -23 -11 0 -18 -4 -15 -9 4 -5 -4 -7 -16 -3
-14 3 -19 2 -14 -6 4 -7 1 -12 -9 -12 -9 0 -14 -4 -11 -9 3 -5 -8 -11 -24 -14
-21 -5 -28 -11 -24 -22 4 -10 0 -15 -11 -15 -9 0 -14 -4 -11 -9 4 -5 -4 -7
-16 -3 -13 3 -19 1 -15 -5 4 -6 -6 -13 -24 -17 -17 -3 -28 -10 -24 -16 3 -5
-1 -10 -10 -10 -9 0 -14 -4 -11 -9 4 -5 -3 -7 -14 -4 -16 4 -19 2 -14 -11 3
-9 1 -16 -6 -16 -6 0 -9 -4 -6 -9 3 -4 -6 -6 -21 -3 -16 3 -24 1 -20 -5 4 -6
-5 -14 -18 -17 -14 -4 -23 -11 -20 -16 3 -6 -1 -10 -10 -10 -9 0 -14 -4 -11
-9 3 -4 -6 -6 -19 -3 -19 3 -24 1 -20 -11 4 -10 -2 -17 -20 -21 -14 -4 -23
-11 -20 -15 3 -5 -8 -12 -24 -16 -22 -5 -28 -11 -24 -22 4 -11 2 -14 -5 -9
-19 11 -52 -3 -45 -20 3 -9 -1 -14 -12 -14 -9 0 -13 -4 -10 -10 3 -5 -1 -10
-9 -10 -25 0 -87 -33 -83 -44 3 -6 -8 -11 -23 -11 -26 0 -27 2 -17 30 12 32
49 71 78 80 11 4 17 11 14 16 -4 5 4 9 17 9 19 0 20 2 8 10 -11 8 -7 9 14 4
19 -5 27 -3 23 3 -4 6 5 14 19 17 17 5 24 12 20 21 -4 10 2 15 17 15 18 0 19
2 7 10 -11 8 -7 9 14 4 21 -5 27 -4 22 5 -4 6 -2 11 4 11 6 0 9 4 6 9 -4 5 4
7 16 3 13 -3 19 -1 15 5 -4 6 7 13 24 17 22 4 30 10 25 21 -3 9 0 15 10 15 8
0 13 4 10 9 -4 5 4 7 16 3 13 -3 19 -1 15 5 -4 6 6 13 24 17 17 3 28 10 24 16
-3 5 1 10 9 10 8 0 14 6 12 13 -1 6 -1 9 1 5 8 -14 35 -8 30 6 -4 9 4 16 24
20 17 3 28 10 25 15 -3 5 5 12 18 15 18 4 23 11 20 28 -2 13 -2 17 2 11 3 -7
12 -13 21 -13 16 0 45 25 37 33 -3 2 6 7 20 11 15 4 23 11 20 19 -3 9 5 13 23
12 24 0 28 4 26 25 -1 14 1 19 3 13 3 -7 10 -13 16 -13 13 0 38 26 32 33 -3 3
8 8 25 12 20 4 28 11 24 21 -3 9 0 12 9 9 8 -3 30 1 49 9 19 8 28 15 22 16
-21 0 -15 20 6 20 11 0 26 7 35 15 8 8 20 15 26 15 6 0 13 6 16 14 3 8 18 16
34 20 20 4 28 10 24 19 -3 10 4 17 20 21 18 4 24 11 19 23 -4 11 -3 14 6 9 19
-12 58 1 85 29 14 14 30 25 37 25 6 0 9 6 6 14 -4 9 0 12 12 9 9 -2 27 5 40
16 13 12 30 21 37 21 7 0 10 9 8 23 -2 12 -2 16 2 10 3 -7 12 -13 19 -13 16 0
28 28 18 42 -3 7 -1 8 6 4 14 -9 81 12 81 25 0 5 11 11 24 15 16 4 23 11 19
20 -3 9 2 14 14 14 22 0 66 34 57 43 -3 3 4 3 17 0 14 -4 20 -2 16 4 -4 6 6
13 23 17 18 3 30 12 30 21 0 8 5 15 11 15 5 0 8 4 5 9 -4 5 4 7 16 3 13 -3 19
-1 15 5 -4 6 6 13 24 17 17 3 28 10 24 16 -3 5 1 10 9 10 8 0 14 6 12 13 -1 6
-1 9 1 5 7 -12 43 -10 43 2 0 6 -6 10 -12 11 -7 1 -2 5 12 9 38 12 40 12 40
-15z"/>
<path d="M7612 6521 c-12 -10 -22 -23 -22 -29 0 -7 -11 -14 -25 -18 -14 -3
-25 -10 -25 -14 0 -5 -9 -12 -20 -15 -11 -4 -18 -10 -15 -15 3 -4 -12 -11 -33
-15 -20 -4 -31 -10 -24 -12 21 -8 13 -20 -19 -27 -17 -3 -28 -10 -24 -16 3 -5
-1 -10 -10 -10 -9 0 -14 -4 -11 -9 3 -4 -7 -6 -22 -4 -21 4 -24 2 -12 -6 13
-9 13 -11 -2 -11 -10 0 -16 -6 -14 -12 1 -7 1 -10 -1 -5 -8 13 -35 7 -30 -7 4
-9 -3 -16 -19 -20 -14 -4 -22 -10 -20 -15 3 -5 -8 -11 -24 -14 -20 -4 -28 -11
-24 -20 3 -9 -3 -13 -18 -13 -18 1 -22 -4 -21 -22 2 -14 -1 -21 -8 -17 -14 9
-61 -3 -54 -14 2 -5 -6 -12 -20 -15 -17 -4 -23 -11 -18 -23 4 -11 3 -14 -6 -9
-19 12 -64 -3 -58 -19 4 -8 -4 -15 -19 -19 -14 -4 -22 -10 -19 -15 2 -5 -11
-12 -30 -15 -20 -4 -33 -11 -30 -15 3 -5 -7 -12 -21 -15 -16 -4 -24 -12 -21
-20 4 -10 -5 -16 -29 -21 -19 -3 -32 -10 -29 -16 4 -5 1 -9 -5 -9 -6 0 -9 -4
-6 -9 4 -5 -4 -7 -16 -3 -14 3 -19 2 -14 -6 5 -8 0 -12 -13 -12 -12 0 -21 -4
-21 -10 0 -5 -9 -14 -21 -20 -26 -15 -70 0 -104 34 -14 15 -36 26 -48 26 -16
0 -19 3 -8 9 10 7 6 11 -17 16 -21 4 -29 11 -26 20 4 9 -3 16 -20 21 -14 3
-23 11 -19 17 4 6 -4 8 -21 5 -20 -4 -26 -2 -22 8 3 9 -4 16 -20 20 -14 4 -23
9 -20 11 8 8 -21 33 -37 33 -9 0 -18 -6 -21 -12 -3 -7 -4 -2 -3 12 2 20 -2 25
-21 24 -15 0 -21 4 -18 13 4 9 -5 16 -25 20 -16 3 -28 8 -25 11 7 6 -20 32
-32 32 -6 0 -13 -6 -16 -12 -4 -7 -4 -3 -2 10 4 19 -1 24 -25 29 -16 3 -27 9
-24 13 5 8 -39 30 -60 30 -8 0 -12 6 -9 14 4 10 -5 16 -25 21 -17 4 -29 11
-26 16 3 4 -6 11 -20 15 -14 3 -25 10 -25 14 0 4 -11 11 -25 14 -14 4 -25 13
-25 21 0 8 -11 17 -25 21 -14 3 -25 10 -25 14 0 4 -11 11 -25 14 -14 4 -25 11
-25 16 0 6 -7 10 -15 10 -8 0 -15 7 -15 15 0 23 -43 37 -54 18 -5 -9 -4 -19 3
-26 6 -6 11 -19 11 -29 0 -10 4 -18 9 -18 4 0 11 -30 15 -67 6 -72 28 -241 52
-410 8 -56 14 -115 14 -132 0 -16 4 -31 10 -33 9 -3 28 -129 49 -313 16 -145
44 -320 52 -325 4 -3 15 -67 24 -142 8 -76 17 -143 20 -150 18 -53 25 -383 26
-1376 0 -617 4 -1120 9 -1117 5 3 10 -1 13 -7 3 -9 11 -7 27 7 13 11 20 14 16
8 -9 -17 16 -17 33 0 11 10 13 10 7 0 -10 -18 85 -18 103 0 11 10 13 10 7 0
-6 -10 84 -13 434 -13 350 0 440 3 434 13 -6 9 -4 9 7 -1 18 -17 153 -17 143
1 -6 10 -4 10 7 0 7 -7 26 -13 42 -13 25 0 28 2 17 15 -7 9 -9 19 -5 23 4 4
10 1 12 -5 5 -14 43 -18 43 -5 0 4 -5 13 -12 20 -9 9 -9 12 3 12 9 1 6 7 -10
20 l-23 20 22 0 c19 0 21 2 9 16 -10 13 -10 17 0 23 10 6 7 13 -10 25 l-23 16
24 0 25 1 -24 19 c-23 20 -23 20 -2 20 24 0 27 10 9 28 -9 9 -9 12 3 12 9 1 5
8 -11 22 -16 14 -19 19 -7 15 14 -5 17 0 17 28 0 21 -6 38 -17 45 -17 11 -17
11 0 6 14 -4 17 1 17 29 0 21 -6 38 -17 45 -17 11 -17 11 0 6 15 -5 17 2 17
44 0 36 -5 52 -17 60 -17 11 -17 11 -1 6 16 -5 17 48 18 879 0 576 4 902 11
937 11 55 21 134 42 331 7 65 17 121 23 125 6 4 16 54 22 112 7 58 19 159 28
225 8 66 21 169 29 229 7 60 17 111 23 115 5 3 14 47 21 96 6 50 18 135 25
190 8 55 20 153 27 218 9 77 17 117 25 117 7 0 10 8 7 20 -7 25 -14 25 -41 1z
m-1606 -366 c-3 -10 3 -17 19 -21 14 -3 22 -10 19 -15 -3 -5 2 -9 10 -9 9 0
16 -4 16 -10 0 -5 7 -10 16 -10 8 0 13 -4 9 -9 -7 -12 31 -25 47 -15 7 5 9 2
5 -9 -4 -11 2 -17 24 -22 17 -4 28 -9 25 -12 -7 -7 20 -33 34 -33 6 0 8 -5 4
-11 -5 -8 1 -10 19 -7 15 3 24 1 21 -3 -3 -5 2 -9 11 -9 9 0 13 -4 10 -10 -3
-5 5 -12 19 -16 16 -4 23 -11 19 -20 -5 -15 31 -21 40 -6 2 4 2 1 1 -5 -2 -7
1 -13 7 -13 6 0 7 -5 3 -12 -5 -8 0 -9 14 -6 12 4 20 2 16 -3 -3 -5 2 -9 11
-9 9 0 13 -5 10 -10 -4 -6 7 -13 24 -16 20 -4 28 -11 24 -20 -5 -14 22 -20 30
-6 2 4 2 1 1 -5 -2 -7 4 -13 12 -13 8 0 12 -4 9 -10 -3 -5 6 -12 20 -16 14 -3
25 -10 25 -14 0 -4 20 -14 45 -21 25 -7 45 -17 45 -21 0 -4 20 -8 45 -8 25 0
45 4 45 9 0 5 10 13 22 17 12 3 28 13 36 20 7 8 22 14 33 14 11 0 17 5 14 10
-3 6 -2 10 3 10 6 0 8 10 6 23 -2 12 -2 16 2 10 3 -7 10 -13 16 -13 12 0 39
26 32 32 -3 3 9 8 26 12 18 3 29 10 25 16 -3 5 1 10 10 10 9 0 14 4 11 9 -4 5
4 7 16 3 14 -3 19 -2 14 6 -4 7 -1 12 9 12 19 0 47 25 38 34 -4 3 1 6 11 6 9
0 15 4 12 9 -4 5 4 7 16 3 14 -3 19 -2 14 6 -4 7 -2 12 4 12 6 0 9 4 6 9 -3 4
6 6 19 3 20 -3 24 -1 19 12 -4 11 -1 16 11 16 9 0 14 4 11 9 -4 5 4 7 16 3 14
-3 19 -2 14 6 -4 7 -2 12 4 12 6 0 8 5 4 12 -4 7 -3 8 5 4 16 -10 63 2 56 14
-3 6 1 10 9 10 9 0 13 6 10 14 -4 10 4 16 25 21 19 4 28 11 25 20 -4 10 1 12
17 8 15 -4 20 -3 15 5 -4 7 -2 12 5 12 13 0 10 -30 -16 -210 -9 -58 -18 -126
-21 -152 -3 -27 -9 -48 -14 -48 -4 0 -10 -28 -13 -62 -4 -35 -21 -166 -38
-293 -17 -126 -34 -251 -36 -277 -3 -27 -8 -48 -13 -48 -4 0 -10 -28 -13 -62
-6 -64 -18 -162 -36 -298 -16 -117 -15 -1752 2 -1769 10 -11 10 -13 0 -7 -10
6 -13 -15 -13 -91 0 -65 4 -104 13 -112 10 -11 10 -13 0 -7 -15 9 -18 -20 -3
-29 6 -3 10 -12 10 -18 0 -7 -4 -6 -10 3 -7 11 -10 -1 -10 -40 0 -31 6 -62 13
-69 10 -11 10 -13 0 -7 -9 5 -13 -1 -13 -20 0 -22 -3 -24 -14 -15 -11 9 -15 9
-19 -1 -3 -9 -8 -10 -15 -3 -7 7 -176 8 -486 5 -452 -5 -474 -4 -459 13 12 12
13 17 3 17 -10 0 -9 4 1 17 11 13 11 17 1 21 -10 3 -10 7 -1 18 9 11 8 14 -6
14 -17 0 -17 1 -1 19 13 15 14 20 4 23 -11 4 -10 8 1 21 10 13 10 17 1 17 -10
0 -10 3 0 15 7 8 9 15 4 15 -5 0 -8 430 -6 987 2 687 -1 1014 -9 1073 -6 47
-13 109 -16 138 -3 28 -9 52 -14 52 -5 0 -9 15 -9 34 0 18 -5 58 -10 87 -12
63 -38 240 -51 354 -5 44 -12 101 -15 128 -3 26 -9 47 -14 47 -4 0 -10 26 -14
58 -3 31 -13 107 -21 167 -38 279 -40 305 -19 305 3 0 4 -7 0 -15z"/>
<path d="M10572 5630 c-17 -16 -35 -30 -41 -30 -6 0 -11 -4 -11 -10 0 -5 -6
-10 -13 -10 -8 0 -24 -9 -37 -20 -13 -11 -28 -20 -34 -20 -7 0 -18 -9 -26 -20
-8 -11 -20 -20 -28 -20 -7 0 -11 -4 -8 -9 3 -5 -6 -12 -19 -15 -14 -4 -23 -10
-21 -15 3 -5 -8 -11 -25 -15 -25 -5 -30 -10 -26 -26 3 -11 1 -17 -4 -14 -13 8
-50 -6 -44 -17 4 -5 -4 -9 -17 -9 -16 0 -19 -3 -10 -9 10 -6 4 -10 -18 -14
-17 -4 -29 -11 -25 -17 3 -5 -1 -10 -10 -10 -12 0 -15 -6 -10 -21 5 -15 4 -19
-4 -14 -16 9 -63 -3 -56 -14 2 -5 -7 -12 -20 -15 -14 -4 -23 -11 -20 -16 3 -6
-4 -10 -17 -11 -13 0 -17 -3 -10 -6 24 -9 13 -32 -15 -30 -22 2 -27 -2 -25
-17 2 -10 -1 -15 -7 -12 -5 4 -22 4 -36 0 -17 -4 -23 -9 -15 -14 7 -4 -1 -10
-19 -13 -22 -5 -29 -11 -25 -22 4 -10 0 -15 -11 -15 -9 0 -14 -4 -11 -9 3 -4
-7 -6 -22 -4 -21 4 -24 2 -12 -6 13 -9 12 -11 -3 -11 -10 0 -16 -4 -13 -9 4
-5 -4 -7 -16 -3 -13 3 -19 1 -15 -5 4 -6 -4 -14 -19 -17 -17 -5 -24 -12 -20
-21 4 -10 -1 -15 -15 -15 -11 0 -18 -4 -15 -9 4 -5 -4 -7 -16 -3 -13 3 -19 1
-15 -5 4 -6 -4 -14 -18 -17 -14 -4 -23 -11 -20 -16 3 -6 -3 -10 -14 -10 -13 0
-19 -5 -15 -14 3 -8 -4 -16 -17 -19 -16 -4 -20 -11 -16 -27 4 -17 3 -19 -9 -9
-11 9 -14 8 -14 -6 0 -10 -3 -16 -6 -12 -4 3 -13 -1 -21 -9 -12 -12 -16 -52
-20 -187 -6 -251 -5 -249 -56 -275 -23 -12 -36 -22 -29 -22 6 0 12 -4 12 -9 0
-6 -12 -9 -27 -8 -23 2 -28 -2 -26 -19 2 -18 -2 -21 -19 -16 -13 3 -19 1 -15
-5 4 -6 -6 -13 -24 -17 -17 -3 -28 -10 -24 -16 3 -5 -1 -10 -9 -10 -10 0 -13
-6 -10 -15 4 -10 0 -15 -11 -15 -9 0 -14 -4 -11 -9 3 -4 -6 -6 -21 -3 -17 3
-24 1 -19 -6 4 -7 -3 -14 -19 -18 -13 -3 -23 -10 -20 -14 3 -5 -9 -12 -27 -16
-18 -4 -27 -9 -20 -11 21 -8 13 -20 -18 -26 -23 -5 -28 -10 -23 -23 4 -11 3
-15 -5 -10 -6 3 -23 4 -37 0 -17 -4 -23 -9 -15 -14 7 -4 0 -10 -18 -13 -24 -5
-29 -10 -25 -25 3 -15 -1 -19 -19 -18 -16 1 -22 -4 -20 -16 2 -12 -3 -15 -17
-11 -10 3 -29 0 -41 -7 -16 -9 -20 -17 -16 -36 4 -14 2 -24 -4 -24 -5 0 -10 6
-11 13 0 6 -6 1 -12 -13 -6 -14 -16 -28 -22 -32 -13 -9 -15 -206 -18 -1821 -2
-1237 -1 -1307 15 -1307 10 0 23 9 30 20 7 11 18 20 25 20 7 0 13 5 13 11 0
15 26 39 42 39 10 0 9 3 -2 10 -8 5 -11 12 -7 16 3 4 13 1 22 -6 12 -10 15
-10 15 3 0 9 9 19 20 22 16 5 19 12 14 28 -6 19 -5 20 10 8 9 -8 16 -9 16 -3
0 6 8 12 17 14 15 3 15 4 -1 20 -20 21 -14 23 15 6 17 -11 22 -10 35 6 8 11
14 31 14 44 0 22 2 23 17 11 13 -11 17 -11 20 -1 3 6 9 10 14 6 5 -3 9 2 9 10
0 9 5 16 11 16 5 0 8 4 5 8 -3 5 5 8 17 8 16 -1 23 6 25 22 2 16 8 22 18 18 8
-3 14 1 14 10 0 9 5 12 12 8 8 -5 9 0 5 15 -4 18 -3 20 9 10 11 -9 14 -9 14 0
0 7 5 9 10 6 6 -3 10 1 10 10 0 11 5 15 15 11 10 -4 15 1 15 15 0 11 5 17 10
14 6 -3 10 -1 10 5 0 6 5 8 10 5 6 -3 10 1 10 9 0 9 7 16 16 16 8 0 12 4 9 10
-3 6 1 7 9 4 11 -4 16 0 16 11 0 9 5 13 10 10 6 -3 10 0 10 8 0 8 9 17 20 20
11 3 20 13 20 22 0 9 5 13 10 10 6 -3 10 1 10 10 0 12 5 15 16 11 13 -5 15 -1
9 21 -6 27 -6 27 9 8 14 -18 15 -18 16 -2 0 9 7 17 16 17 8 0 13 4 10 9 -4 5
7 12 24 16 17 4 28 11 24 16 -3 5 2 9 11 9 9 0 13 5 10 10 -3 6 1 10 9 10 9 0
18 11 22 25 3 14 10 22 15 19 5 -3 9 0 9 5 0 6 9 11 21 11 11 0 17 5 14 10 -3
6 1 10 10 10 9 0 14 4 11 9 -4 5 3 7 14 4 16 -4 19 -2 14 11 -3 9 -1 16 6 16
6 0 8 5 5 10 -3 6 3 10 14 10 15 0 19 4 14 18 -6 15 -5 15 10 3 15 -12 17 -11
17 3 0 9 5 16 11 16 5 0 7 6 3 12 -5 9 -2 9 9 -1 15 -12 17 -11 18 10 0 13 3
18 6 12 8 -20 23 -15 23 7 0 11 4 20 10 20 5 0 6 8 3 18 -6 15 -5 16 12 2 17
-14 18 -13 12 9 -4 17 -3 21 5 13 15 -15 36 7 30 30 -5 22 2 23 22 2 15 -14
16 -14 16 0 0 9 7 16 16 16 8 0 12 5 9 10 -3 6 -1 10 5 10 7 0 7 7 -1 23 -12
22 -12 22 10 3 18 -17 21 -17 21 -3 0 10 5 14 15 11 10 -4 15 0 15 15 0 12 5
21 11 21 5 0 7 6 3 13 -5 8 -2 8 9 -2 15 -12 17 -11 17 3 0 10 5 14 10 11 6
-3 10 1 10 9 0 9 8 16 18 17 10 0 12 3 5 6 -13 5 -18 33 -7 33 4 0 13 -8 21
-17 13 -16 14 -16 10 10 -3 19 -1 25 5 19 15 -15 52 22 44 43 -3 9 -2 13 4 10
6 -3 10 -1 10 4 0 6 7 11 15 11 8 0 16 13 19 33 3 17 8 48 11 67 3 19 10 98
15 175 6 77 14 194 20 260 6 66 13 179 17 250 3 72 10 133 15 136 5 3 13 82
18 175 20 358 41 685 55 839 8 88 15 186 15 217 0 31 4 58 9 60 5 2 14 109 20
238 7 129 16 262 21 295 13 81 28 278 40 519 6 110 14 202 19 205 5 4 13 27
19 54 9 42 8 47 -8 47 -10 0 -32 -13 -48 -30z m-152 -404 c0 -35 -4 -66 -9
-68 -5 -1 -14 -70 -20 -153 -6 -82 -16 -186 -22 -230 -5 -44 -14 -179 -19
-300 -10 -250 -30 -488 -40 -495 -4 -3 -10 -50 -13 -105 -11 -192 -27 -452
-42 -675 -9 -124 -21 -308 -27 -410 -6 -102 -15 -188 -21 -191 -5 -4 -13 -87
-18 -185 -7 -172 -18 -246 -40 -259 -5 -4 -7 -11 -4 -16 4 -5 -4 -9 -17 -9
-18 0 -20 -2 -8 -10 13 -8 12 -10 -3 -10 -26 0 -49 -24 -35 -38 8 -8 4 -9 -13
-5 -22 6 -23 5 -9 -12 8 -10 10 -16 3 -12 -7 4 -24 5 -39 1 -26 -7 -26 -8 -8
-21 18 -13 17 -14 -10 -7 -26 6 -27 5 -17 -14 9 -18 8 -19 -11 -14 -14 3 -19
1 -14 -6 3 -6 -6 -13 -25 -17 -28 -6 -29 -8 -12 -20 16 -12 15 -13 -11 -8 -20
4 -27 2 -22 -6 4 -6 1 -11 -8 -11 -10 0 -13 -6 -10 -15 4 -10 0 -15 -11 -15
-9 0 -14 -4 -11 -9 4 -5 -8 -13 -26 -16 -30 -7 -31 -8 -12 -22 18 -13 17 -14
-10 -7 -21 5 -27 4 -22 -5 4 -6 2 -11 -4 -11 -20 0 -40 -26 -29 -37 7 -7 1 -9
-18 -6 -22 4 -25 2 -13 -6 12 -9 11 -11 -8 -11 -13 0 -21 -4 -18 -9 3 -5 -5
-12 -19 -15 -16 -4 -22 -11 -19 -21 4 -10 0 -15 -11 -15 -9 0 -13 -4 -10 -10
3 -5 -3 -10 -15 -10 -12 0 -18 -4 -15 -10 3 -5 -1 -10 -9 -10 -9 0 -13 -6 -10
-13 3 -9 -3 -13 -18 -13 -16 1 -22 -4 -20 -15 2 -12 -8 -19 -33 -23 -20 -4
-33 -11 -30 -17 4 -5 1 -9 -5 -9 -6 0 -8 -5 -5 -10 3 -5 -1 -10 -9 -10 -9 0
-13 -6 -10 -14 4 -10 -2 -12 -23 -10 -15 2 -22 1 -15 -2 17 -8 15 -24 -4 -24
-8 0 -13 -4 -10 -9 4 -5 -4 -7 -16 -3 -20 5 -21 3 -11 -10 11 -12 9 -14 -10
-14 -15 1 -21 -4 -19 -15 2 -12 -4 -15 -23 -11 -29 5 -31 0 -9 -23 15 -15 14
-15 -11 -9 -20 5 -26 4 -21 -5 4 -6 2 -11 -4 -11 -6 0 -9 -4 -6 -9 3 -5 -11
-12 -31 -16 -36 -6 -37 -7 -18 -22 19 -14 18 -14 -9 -7 -26 6 -27 5 -17 -14 9
-18 8 -19 -11 -14 -14 3 -19 1 -14 -6 3 -6 -6 -13 -25 -17 -28 -6 -29 -8 -12
-20 16 -12 15 -13 -11 -8 -19 4 -27 2 -23 -4 4 -6 -5 -14 -19 -17 -17 -5 -24
-12 -20 -21 3 -9 -1 -15 -10 -15 -8 0 -12 -4 -9 -10 3 -5 -3 -10 -15 -10 -12
0 -19 -4 -16 -9 3 -5 -3 -11 -14 -14 -20 -5 -20 -3 -18 1331 3 1165 5 1340 18
1360 8 12 22 22 30 22 10 0 11 3 3 8 -7 5 5 14 32 25 35 15 42 22 39 40 -2 12
-2 16 2 10 3 -7 12 -13 21 -13 18 0 45 25 36 34 -4 3 1 6 11 6 9 0 15 4 12 9
-4 5 8 13 26 17 18 4 27 9 21 11 -24 8 -13 22 15 20 22 -2 27 2 25 19 -2 18 2
21 19 16 13 -3 19 -1 15 5 -4 6 6 13 24 17 17 3 28 10 25 15 -3 5 5 12 18 15
17 4 23 11 19 24 -3 14 2 18 24 17 22 0 27 4 25 19 -2 11 1 15 7 11 14 -8 53
4 46 15 -2 4 9 10 25 13 21 5 28 11 24 22 -4 10 0 15 11 15 9 0 14 4 11 9 -4
5 4 7 16 3 14 -3 19 -2 14 6 -4 7 -2 12 5 12 8 0 7 5 -2 16 -12 15 -11 16 9
10 14 -5 22 -3 22 4 0 6 4 9 9 6 16 -11 24 49 30 242 5 168 8 195 23 206 10 7
16 15 13 18 -2 2 11 10 31 17 24 9 34 18 30 27 -3 8 -1 14 5 14 6 0 8 4 5 9
-4 5 4 7 16 3 14 -3 19 -2 14 6 -5 8 1 12 14 12 12 0 19 4 16 9 -4 5 4 7 16 3
14 -3 19 -2 14 6 -4 7 -3 12 3 12 6 0 9 6 7 13 -1 6 -1 9 1 5 8 -14 35 -8 30
6 -4 9 4 16 24 20 17 3 28 10 24 16 -3 5 1 10 10 10 9 0 13 5 10 10 -3 6 1 10
10 10 9 0 14 4 11 9 -3 4 6 6 19 3 19 -3 24 -1 20 11 -4 10 2 17 20 21 14 4
23 11 20 16 -3 6 1 10 10 10 9 0 14 4 11 9 -3 5 8 11 24 14 21 5 28 11 24 22
-4 10 0 15 11 15 9 0 14 4 11 9 -4 5 4 7 16 3 13 -3 19 -1 15 5 -4 6 6 13 24
17 17 3 28 10 25 15 -3 5 5 12 19 15 16 4 22 11 19 21 -4 11 1 15 17 15 20 0
21 2 9 10 -11 8 -7 9 14 4 19 -5 27 -3 23 3 -4 6 5 14 18 17 14 4 23 11 20 16
-3 6 3 10 14 10 19 0 21 -6 21 -64z"/>
<path d="M2774 5633 c4 -9 9 -42 13 -72 3 -31 10 -59 15 -62 4 -3 13 -118 18
-255 10 -279 25 -482 40 -563 5 -30 10 -106 10 -170 1 -155 17 -365 30 -369 6
-2 10 -40 10 -85 1 -92 15 -290 29 -417 6 -47 17 -211 25 -365 19 -350 24
-418 35 -425 8 -5 23 -200 41 -535 8 -162 30 -258 56 -248 9 3 14 -2 14 -17 0
-18 4 -21 21 -17 17 5 18 3 7 -11 -11 -13 -10 -15 10 -9 20 5 23 2 19 -14 -3
-10 -1 -19 5 -19 5 0 6 -4 3 -10 -7 -12 40 -25 55 -15 7 4 10 0 8 -11 -2 -14
3 -19 20 -18 17 0 21 -4 16 -18 -4 -14 0 -18 16 -18 12 0 18 -4 15 -10 -3 -5
-1 -10 5 -10 6 0 8 -5 4 -12 -5 -8 0 -9 15 -5 17 4 21 2 17 -9 -4 -10 3 -16
24 -21 31 -6 39 -18 18 -26 -7 -2 2 -7 20 -11 18 -4 30 -12 26 -17 -3 -5 2 -9
11 -9 9 0 13 -5 10 -10 -3 -6 1 -10 10 -10 10 0 13 -5 9 -11 -5 -8 1 -10 19
-7 23 4 25 3 16 -13 -8 -15 -5 -20 16 -25 14 -3 22 -10 19 -15 -3 -5 9 -12 26
-16 22 -4 28 -8 18 -14 -9 -6 -7 -9 9 -9 16 0 21 -4 17 -15 -4 -9 0 -15 10
-15 9 0 16 5 16 12 0 6 3 8 6 5 4 -4 1 -14 -7 -23 -13 -16 -12 -17 9 -12 19 5
21 4 12 -7 -9 -11 -7 -15 14 -21 13 -3 31 -2 38 2 9 5 8 1 -2 -11 -14 -17 -13
-18 8 -13 12 4 20 2 16 -3 -3 -5 0 -9 6 -9 7 0 10 -7 6 -15 -3 -9 0 -15 10
-15 9 0 12 -5 8 -11 -5 -8 1 -10 20 -7 20 4 26 2 22 -8 -3 -8 -1 -14 5 -14 6
0 7 -5 3 -12 -5 -7 0 -9 14 -6 15 4 19 2 15 -8 -3 -8 1 -14 11 -14 9 0 15 -6
13 -12 -1 -8 9 -13 26 -13 18 1 26 -3 23 -12 -3 -7 2 -13 10 -13 8 0 12 -5 9
-10 -3 -6 -2 -10 4 -10 6 0 8 -7 5 -15 -7 -18 22 -21 30 -2 4 6 4 2 2 -10 -3
-17 2 -23 25 -28 16 -4 27 -11 23 -16 -3 -5 2 -9 11 -9 9 0 13 -5 10 -10 -4
-6 7 -13 24 -16 32 -7 40 -18 19 -28 -7 -3 -1 -4 15 -2 23 3 25 1 15 -12 -11
-13 -10 -15 10 -10 19 5 21 4 12 -7 -9 -11 -7 -15 14 -21 13 -3 31 -3 38 1 7
3 4 -1 -7 -10 -20 -17 -19 -17 7 -13 24 4 26 3 18 -13 -8 -14 -6 -19 10 -24
11 -3 25 -3 32 1 8 5 7 0 -2 -11 -14 -17 -13 -18 15 -11 29 7 29 7 10 -8 -20
-15 -20 -15 4 -16 13 0 22 -3 18 -6 -8 -8 18 -34 33 -34 6 0 8 -4 5 -10 -3 -5
3 -10 15 -10 12 0 18 -4 15 -10 -3 -5 2 -10 12 -10 14 0 15 -2 5 -9 -10 -6 -7
-10 13 -15 14 -4 31 -4 37 0 7 5 9 0 6 -14 -4 -12 -2 -22 4 -22 5 0 6 -4 3
-10 -3 -5 7 -13 22 -16 31 -8 55 -28 46 -38 -4 -3 -1 -6 5 -6 7 0 12 -5 12
-11 0 -15 30 -38 50 -39 13 0 15 177 12 1541 -2 1348 -4 1543 -17 1556 -8 8
-15 19 -15 25 0 5 -6 8 -14 5 -9 -4 -12 0 -9 13 3 10 0 28 -7 40 -9 17 -17 20
-38 15 -25 -6 -26 -5 -8 8 18 13 18 14 -8 21 -15 4 -32 4 -38 0 -6 -4 -9 -1
-6 7 5 15 -14 39 -32 39 -6 0 -8 5 -5 10 3 6 -3 10 -15 10 -12 0 -18 4 -15 10
3 5 -6 12 -20 16 -14 3 -22 11 -18 17 4 6 -2 8 -15 5 -12 -4 -20 -2 -16 3 3 5
-5 9 -16 9 -16 0 -20 5 -16 15 3 10 -3 17 -19 21 -14 3 -22 10 -20 15 7 11
-40 23 -55 14 -7 -4 -10 0 -8 11 2 14 -3 19 -20 18 -18 -1 -22 3 -19 18 4 14
-1 20 -24 25 -16 3 -26 9 -23 14 2 5 -7 11 -21 15 -14 3 -24 9 -21 11 8 9 -21
33 -41 34 -11 0 -13 2 -5 6 9 3 4 10 -14 19 -15 8 -35 12 -43 9 -13 -5 -13 -4
-4 6 10 10 9 15 -5 25 -15 11 -17 37 -20 203 -2 110 -7 191 -13 191 -5 0 -9 9
-9 20 0 11 -4 20 -8 20 -5 0 -14 12 -21 26 -8 19 -17 25 -32 21 -16 -4 -18 -3
-8 9 9 11 7 14 -10 14 -23 0 -29 15 -8 23 6 3 2 6 -11 6 -13 1 -20 5 -17 11 3
5 -6 12 -20 16 -13 3 -22 10 -20 15 7 11 -40 23 -56 14 -8 -5 -9 -1 -5 13 6
17 2 23 -18 28 -14 3 -23 10 -20 15 3 5 -8 12 -25 15 -17 4 -28 10 -26 14 7
12 -32 23 -46 14 -9 -5 -10 0 -6 15 4 18 0 23 -24 28 -16 3 -26 9 -23 14 2 5
-7 11 -21 15 -14 3 -22 11 -18 17 4 6 -2 8 -15 5 -12 -4 -20 -2 -16 3 3 5 -2
9 -10 9 -19 0 -21 16 -3 24 6 3 -1 4 -16 2 -21 -2 -27 0 -23 10 3 9 -4 16 -19
20 -14 3 -22 10 -20 15 7 11 -40 23 -56 14 -8 -5 -9 -1 -5 13 6 17 2 23 -18
28 -14 3 -24 10 -21 14 3 5 -8 11 -25 15 -18 4 -27 11 -24 17 5 7 -1 9 -15 5
-13 -3 -21 -1 -20 6 3 27 -2 37 -20 37 -11 0 -22 -6 -25 -12 -4 -7 -4 -3 -2
10 3 17 -2 24 -20 28 -13 3 -21 10 -19 15 7 11 -40 23 -56 14 -8 -5 -9 -1 -5
13 6 17 2 23 -18 28 -14 3 -23 10 -20 15 3 5 -9 12 -26 16 -23 4 -28 8 -18 15
9 7 5 8 -14 5 -15 -2 -25 -1 -23 4 7 10 -5 39 -17 39 -5 0 -16 7 -24 15 -22
21 -58 20 -50 -2z m241 -352 c-7 -12 31 -25 46 -16 6 4 9 0 7 -11 -2 -15 3
-19 25 -19 22 1 27 -3 24 -17 -4 -13 2 -20 19 -24 13 -3 21 -10 19 -15 -8 -11
41 -23 56 -13 9 5 10 2 6 -9 -5 -12 1 -19 19 -23 16 -4 23 -11 20 -21 -4 -9 4
-16 24 -20 17 -3 27 -10 23 -16 -4 -6 2 -8 15 -5 12 4 20 2 16 -3 -3 -5 0 -9
6 -9 6 0 8 -5 4 -12 -5 -8 0 -9 15 -5 19 5 22 2 18 -13 -4 -14 2 -20 24 -25
16 -4 27 -11 24 -16 -3 -4 6 -11 20 -15 13 -3 22 -11 18 -17 -4 -6 4 -8 20 -5
15 3 24 1 21 -3 -3 -5 2 -9 11 -9 11 0 15 -5 11 -15 -3 -9 0 -15 10 -15 8 0
12 -5 9 -10 -4 -6 8 -13 25 -17 19 -3 27 -9 20 -13 -8 -5 -2 -10 15 -14 14 -4
31 -4 37 0 6 4 8 -1 3 -15 -5 -18 -1 -24 24 -34 51 -19 60 -52 65 -252 6 -186
12 -239 27 -229 5 3 9 1 9 -5 0 -6 7 -8 15 -5 10 4 15 0 15 -11 0 -14 3 -15
14 -6 11 9 12 6 8 -14 -3 -21 0 -25 18 -25 16 0 20 -4 16 -15 -4 -11 3 -17 24
-22 17 -3 27 -10 23 -16 -4 -6 2 -8 15 -5 12 4 20 2 16 -3 -3 -5 0 -9 6 -9 6
0 8 -5 4 -12 -5 -8 0 -9 15 -5 18 4 21 2 16 -13 -5 -14 1 -20 25 -25 16 -4 28
-11 25 -16 -3 -4 6 -11 20 -15 13 -3 22 -11 18 -17 -4 -6 4 -8 20 -5 15 3 24
1 21 -3 -3 -5 -1 -9 5 -9 6 0 8 -7 5 -15 -7 -18 22 -21 30 -2 4 6 4 2 2 -11
-4 -19 1 -24 25 -29 16 -3 26 -9 23 -14 -2 -5 7 -11 21 -15 14 -3 22 -11 18
-17 -4 -6 1 -8 14 -5 16 4 19 1 16 -12 -4 -14 3 -20 26 -25 17 -4 29 -11 26
-16 -3 -4 6 -11 20 -15 14 -3 24 -9 21 -12 -3 -2 9 -17 27 -33 l32 -28 3
-1332 c2 -1005 -1 -1335 -9 -1343 -9 -8 -10 -6 -6 7 4 9 2 17 -3 17 -6 0 -10
7 -10 16 0 10 -6 14 -15 10 -8 -3 -15 0 -15 6 0 7 -4 7 -14 -1 -11 -9 -12 -6
-8 15 3 19 1 25 -7 20 -6 -4 -11 -1 -11 9 0 9 -4 13 -10 10 -5 -3 -10 1 -10
10 0 13 -4 14 -22 4 -17 -9 -20 -9 -16 2 6 15 -16 42 -26 32 -3 -4 -6 5 -6 18
-1 23 -1 23 -15 5 -15 -20 -15 -20 -15 0 0 10 -4 25 -9 33 -8 13 -12 13 -27 0
-16 -12 -17 -12 -11 4 4 11 1 17 -9 17 -8 0 -12 5 -9 10 3 6 2 10 -4 10 -6 0
-8 7 -5 15 4 9 0 15 -10 15 -9 0 -16 -4 -16 -10 0 -5 -4 -10 -10 -10 -5 0 -10
9 -10 21 0 12 -8 23 -20 26 -11 3 -20 10 -20 15 0 5 -4 7 -9 4 -5 -3 -12 5
-15 19 -4 16 -13 25 -27 25 -11 0 -17 5 -14 10 3 6 -1 10 -10 10 -9 0 -13 4
-10 10 3 5 -6 12 -20 16 -14 3 -25 12 -25 20 0 8 -6 11 -15 8 -10 -4 -15 0
-15 12 0 17 -1 16 -14 -1 -13 -18 -14 -18 -9 9 4 20 2 27 -6 22 -6 -4 -11 -1
-11 9 0 9 -4 14 -9 11 -5 -3 -11 3 -14 14 -3 12 -14 20 -26 20 -13 0 -21 6
-21 18 0 14 -2 15 -10 2 -8 -12 -10 -10 -10 8 0 13 -4 20 -10 17 -5 -3 -10 -1
-10 6 0 9 -3 9 -14 0 -12 -10 -13 -8 -9 10 5 19 4 20 -15 10 -18 -9 -19 -8
-14 11 3 14 1 19 -6 14 -8 -5 -12 1 -12 15 0 22 0 22 -16 3 -15 -19 -15 -19
-11 1 4 21 -16 49 -27 38 -3 -4 -6 1 -6 10 0 20 -11 22 -29 5 -11 -11 -13 -10
-8 5 4 9 2 17 -3 17 -6 0 -10 8 -10 17 0 15 -2 14 -16 -3 -15 -19 -15 -18 -11
4 4 15 0 22 -10 22 -8 0 -11 5 -8 10 3 6 -2 10 -12 10 -15 0 -16 2 -3 11 12 8
9 10 -12 6 -20 -3 -28 1 -31 15 -3 10 -13 18 -22 18 -11 0 -15 5 -11 15 3 10
-1 15 -13 15 -10 0 -21 7 -25 15 -3 8 -12 15 -21 15 -8 0 -15 6 -15 13 0 16
-36 47 -55 47 -8 0 -15 8 -15 17 0 9 -3 13 -7 10 -3 -4 -14 5 -23 21 -12 20
-19 64 -24 167 -4 77 -11 142 -15 145 -5 3 -12 70 -15 150 -4 80 -12 182 -17
226 -5 45 -14 164 -20 265 -5 101 -14 252 -19 334 -9 172 -19 255 -30 255 -4
0 -11 66 -14 148 -4 81 -13 228 -21 327 -8 99 -17 243 -20 320 -8 190 -34 468
-44 475 -4 3 -11 76 -14 163 -5 152 -5 157 14 157 11 0 18 -4 14 -9z"/>
<path d="M7475 4488 c2 -13 6 -31 10 -40 5 -11 3 -18 -5 -18 -9 0 -7 -8 4 -25
14 -22 15 -25 1 -25 -13 0 -13 -3 -3 -20 11 -17 10 -22 -1 -29 -8 -5 -9 -11
-3 -15 6 -3 8 -15 5 -25 -3 -10 0 -22 6 -25 6 -4 11 -13 11 -19 0 -7 -4 -6
-10 3 -8 12 -10 11 -10 -5 0 -12 6 -27 13 -34 10 -11 9 -13 -1 -7 -13 8 -12
-291 3 -1463 6 -431 2 -583 -12 -543 -4 9 -166 12 -765 12 -713 0 -762 -1
-774 -17 -13 -17 -14 -17 -8 0 5 13 1 17 -16 17 -19 0 -20 2 -10 15 10 12 10
15 0 15 -10 0 -10 3 0 15 9 11 9 15 1 15 -9 0 -9 5 -1 20 6 11 7 20 2 20 -5 0
-8 10 -6 23 2 12 5 446 8 965 3 717 2 940 -7 935 -7 -4 -4 5 6 20 16 25 16 27
1 27 -16 0 -15 2 1 20 17 19 17 20 0 20 -16 0 -16 2 -1 24 11 18 12 26 3 29
-9 3 -9 8 2 20 8 11 9 17 2 17 -7 0 -8 8 -1 25 8 20 6 25 -6 25 -12 0 -13 4
-4 20 8 16 8 20 -4 20 -8 0 -17 -4 -21 -9 -3 -5 -19 -12 -35 -16 -17 -4 -30
-10 -30 -13 0 -4 -17 -8 -37 -9 -21 -1 -39 -7 -41 -12 -2 -6 -10 -11 -18 -11
-8 0 -14 -4 -14 -9 0 -5 -29 -19 -65 -32 -36 -12 -65 -26 -65 -31 0 -4 -7 -8
-15 -8 -8 0 -15 -4 -15 -9 0 -5 -22 -17 -50 -27 -27 -10 -50 -21 -50 -25 0 -4
-16 -13 -35 -19 -19 -6 -35 -16 -35 -21 0 -5 -8 -9 -18 -9 -11 0 -29 -9 -42
-20 -13 -11 -39 -25 -59 -30 -50 -14 -65 -25 -58 -43 4 -11 1 -14 -8 -11 -15
6 -135 -36 -135 -48 0 -3 -16 -12 -35 -18 -19 -6 -35 -15 -35 -20 0 -4 -12
-11 -26 -14 -15 -4 -33 -14 -41 -21 -8 -8 -24 -15 -36 -16 -14 0 -17 -3 -8 -6
9 -4 2 -10 -20 -17 -23 -8 -35 -18 -37 -34 -2 -12 -8 -20 -13 -17 -5 4 -9 2
-9 -4 0 -6 -6 -8 -14 -5 -8 3 -17 -4 -22 -18 -10 -27 -18 -3018 -9 -3126 4
-41 13 -78 21 -86 8 -8 14 -19 14 -25 0 -6 5 -11 10 -11 6 0 10 -7 10 -15 0
-8 9 -24 19 -34 11 -11 16 -23 13 -27 -4 -4 5 -4 21 0 27 6 39 -8 15 -17 -7
-3 -2 -6 11 -6 16 -1 21 -5 17 -16 -3 -10 3 -17 19 -21 14 -3 23 -10 20 -14
-3 -5 5 -12 17 -16 22 -7 48 -28 48 -39 0 -10 48 -55 60 -55 5 0 10 -4 10 -10
0 -5 5 -10 11 -10 14 0 39 -25 39 -39 0 -6 7 -11 15 -11 8 0 15 -7 15 -15 0
-8 9 -15 20 -15 11 0 20 -4 20 -10 0 -5 7 -10 15 -10 8 0 15 -4 15 -10 0 -5 7
-10 15 -10 8 0 15 -9 15 -20 0 -11 7 -20 15 -20 7 0 18 -7 23 -16 13 -23 65
-8 59 17 -3 12 0 19 9 19 8 0 14 7 14 15 0 8 -4 15 -10 15 -5 0 -10 5 -10 10
0 6 9 10 21 10 15 0 19 5 15 15 -3 8 -1 15 5 15 5 0 7 11 3 25 -5 19 -2 25 11
25 11 0 15 5 11 15 -3 8 -1 15 5 15 6 0 9 7 5 15 -3 8 -1 15 3 15 5 0 7 9 4
20 -3 11 0 20 6 20 5 0 8 7 5 15 -4 10 0 15 12 16 11 0 14 3 7 6 -20 8 -15 23
7 23 18 0 19 3 9 21 -9 17 -8 20 2 14 9 -6 11 -2 7 13 -4 12 -2 20 3 17 11 -8
23 40 13 57 -4 7 -4 10 1 6 9 -8 45 64 45 88 0 8 4 14 9 14 5 0 15 15 21 34 6
19 15 36 20 38 5 2 11 24 12 49 2 32 7 45 16 42 7 -3 12 4 12 20 0 35 10 57
25 57 15 0 25 22 25 55 0 13 5 25 11 27 5 2 13 22 16 46 3 23 9 42 14 42 4 0
11 10 15 23 4 12 10 24 13 27 7 6 43 95 68 170 10 30 28 65 40 77 l22 23 808
0 c444 0 813 -4 819 -8 6 -4 10 -15 8 -25 -1 -9 4 -24 13 -32 8 -9 10 -15 3
-15 -6 0 -2 -9 8 -21 11 -11 22 -38 26 -60 3 -21 10 -39 15 -39 5 0 12 -18 16
-40 4 -25 12 -40 21 -40 8 0 14 -10 14 -22 0 -28 15 -52 26 -45 5 3 9 -16 9
-41 1 -27 6 -47 13 -50 7 -2 12 -14 12 -27 0 -34 10 -55 26 -55 8 0 14 -10 14
-24 0 -12 12 -54 26 -92 14 -38 33 -89 41 -114 9 -25 19 -47 23 -50 3 -3 17
-33 30 -68 15 -42 27 -61 36 -58 8 3 11 0 7 -10 -6 -16 15 -74 27 -74 4 0 10
-14 14 -31 3 -17 10 -28 15 -25 5 3 7 -4 3 -16 -4 -16 -2 -19 9 -13 12 8 12 6
0 -8 -10 -13 -10 -17 -1 -17 7 0 10 -8 7 -20 -3 -11 -1 -20 5 -20 6 0 8 -7 4
-15 -3 -8 -1 -15 4 -15 5 0 7 -7 4 -15 -4 -8 -2 -15 4 -15 6 0 8 -9 5 -20 -4
-15 0 -20 16 -20 11 0 21 -4 21 -10 0 -5 -4 -10 -10 -10 -21 0 -9 -18 15 -24
26 -7 55 11 55 33 0 6 9 11 20 11 11 0 20 7 20 15 0 8 5 15 11 15 16 0 41 28
35 39 -3 5 4 7 16 3 14 -3 19 -1 14 6 -5 8 -2 10 8 6 11 -4 16 0 16 11 0 9 5
13 10 10 6 -3 10 2 10 12 0 15 2 16 10 3 8 -12 10 -10 10 8 0 13 4 20 10 17 6
-3 10 1 10 9 0 8 10 16 23 18 15 2 25 14 33 36 5 18 13 29 17 26 4 -4 7 3 7
16 0 18 3 21 11 13 14 -14 39 -6 39 12 0 7 -6 16 -12 19 -7 4 -3 4 10 2 17 -3
22 1 22 17 0 18 2 19 10 7 8 -13 10 -12 10 3 0 11 4 15 12 11 8 -5 9 0 5 15
-4 18 -3 20 9 10 11 -9 14 -8 14 6 0 11 5 15 15 11 9 -3 15 0 15 10 0 8 5 12
10 9 6 -3 10 3 10 15 0 12 4 19 9 15 5 -3 12 4 16 15 3 11 11 20 16 20 5 0 9
6 9 14 0 8 6 16 13 18 18 7 18 3169 0 3175 -7 3 -13 11 -13 18 0 18 -37 38
-56 31 -12 -4 -12 -2 -4 14 9 17 6 20 -25 26 -19 3 -33 10 -30 14 3 5 -4 11
-15 15 -11 3 -20 10 -20 15 0 5 -13 11 -30 15 -16 4 -30 10 -30 14 0 4 -18 14
-40 21 -22 7 -40 17 -40 22 0 4 -6 8 -13 8 -8 0 -24 9 -37 20 -13 11 -29 20
-37 20 -7 0 -13 4 -13 8 0 11 -64 33 -81 29 -8 -2 -11 -2 -6 0 15 9 6 19 -28
32 -19 7 -40 9 -46 5 -8 -4 -9 -3 -5 5 9 15 -12 36 -46 44 -15 4 -33 13 -40
20 -7 7 -33 19 -57 27 -24 8 -49 19 -55 25 -6 6 -35 20 -63 30 -29 10 -53 22
-53 25 0 4 -27 15 -60 26 -35 11 -60 25 -60 33 0 8 -7 11 -20 8 -11 -3 -20 -1
-20 4 0 5 -5 9 -10 9 -6 0 -30 9 -52 20 -52 25 -56 25 -53 -2z m-1735 -1230
c1 -535 1 -1026 1 -1091 0 -88 3 -116 12 -110 7 4 5 -2 -3 -12 -14 -17 -13
-18 13 -13 15 3 27 1 27 -5 0 -6 10 -2 22 9 12 10 18 13 14 7 -9 -16 8 -17 36
-2 15 8 19 8 14 0 -10 -16 47 -14 63 2 11 9 12 9 7 0 -5 -10 150 -13 729 -13
589 0 735 2 729 12 -6 10 -4 11 7 1 7 -7 22 -13 34 -13 16 0 17 2 5 10 -9 6
-10 10 -3 10 6 0 15 -5 18 -10 10 -16 108 -13 99 3 -6 10 -4 10 7 0 7 -7 29
-13 48 -13 33 0 34 1 15 15 -18 15 -17 16 16 9 31 -6 33 -5 21 10 -10 12 -10
16 -1 16 9 0 8 7 -4 25 -15 23 -15 25 0 25 13 0 14 3 4 15 -10 12 -10 15 0 15
9 0 8 5 -3 18 -10 10 -17 23 -17 28 0 5 5 2 10 -6 7 -11 10 -6 10 21 0 19 -6
41 -12 48 -10 11 -10 13 0 7 9 -5 12 9 12 61 0 41 -5 74 -12 82 -11 11 -10 12
0 6 11 -6 13 134 7 836 -4 464 -9 847 -11 851 -3 5 0 8 7 8 8 0 8 4 -2 16 -8
10 -9 18 -3 22 6 4 9 22 8 40 -1 37 -1 37 34 18 57 -29 123 -56 137 -56 8 0
15 -4 15 -9 0 -5 14 -14 30 -21 17 -7 30 -16 30 -21 0 -5 9 -9 19 -9 11 0 26
-6 33 -14 8 -7 24 -17 36 -20 12 -4 22 -11 22 -16 0 -5 14 -11 30 -15 17 -4
36 -12 43 -18 18 -18 122 -58 138 -54 8 2 11 2 7 0 -5 -3 -8 -10 -8 -16 0 -16
116 -61 136 -53 9 3 12 2 9 -4 -7 -12 18 -40 35 -40 6 0 8 -4 5 -10 -3 -5 3
-10 14 -10 10 0 21 -6 24 -12 3 -10 7 -10 18 -1 12 10 13 -198 9 -1495 -5
-1456 -6 -1509 -24 -1552 -24 -56 -25 -58 -36 -40 -8 12 -10 11 -10 -7 0 -13
-8 -24 -20 -28 -11 -4 -18 -11 -15 -16 4 -5 1 -9 -5 -9 -6 0 -8 -4 -5 -10 3
-6 -4 -10 -17 -11 -13 0 -17 -3 -10 -6 19 -8 14 -23 -9 -23 -11 0 -18 -4 -14
-9 3 -5 -4 -12 -15 -16 -11 -4 -18 -11 -15 -16 4 -5 -1 -9 -10 -9 -9 0 -13 -4
-10 -10 3 -5 -1 -10 -10 -10 -19 0 -47 -25 -38 -34 4 -3 1 -6 -5 -6 -6 0 -9
-6 -6 -14 4 -11 0 -13 -17 -9 -15 4 -20 3 -15 -5 4 -7 3 -12 -3 -12 -5 0 -16
-3 -25 -6 -11 -4 -16 -1 -16 10 0 9 -4 16 -10 16 -5 0 -15 20 -21 45 -6 25
-15 45 -20 45 -4 0 -13 18 -19 40 -6 22 -14 40 -19 40 -5 0 -27 54 -51 120
-23 66 -45 120 -50 120 -4 0 -10 10 -13 22 -11 46 -77 222 -86 227 -4 4 -16
31 -26 61 -10 30 -21 60 -25 65 -4 6 -15 34 -24 63 -10 28 -21 52 -26 52 -4 0
-16 25 -25 55 -10 30 -21 53 -24 50 -4 -2 -5 12 -3 31 4 30 2 33 -14 27 -17
-6 -17 -5 -5 10 10 12 10 17 2 17 -8 0 -10 8 -6 20 4 12 2 20 -5 20 -7 0 -10
6 -7 14 4 9 -3 16 -16 20 -12 3 -416 6 -897 5 -829 0 -878 -1 -929 -18 -55
-19 -77 -41 -67 -66 3 -9 0 -12 -8 -9 -9 4 -15 -8 -20 -36 -3 -23 -4 -45 -1
-50 3 -6 0 -7 -8 -4 -10 4 -16 -5 -21 -31 -4 -19 -4 -39 -1 -44 3 -5 -3 -7
-13 -4 -16 4 -24 -10 -50 -79 -17 -46 -34 -95 -38 -111 -3 -15 -10 -27 -14
-27 -8 0 -10 -5 -61 -142 -18 -50 -38 -88 -46 -88 -8 0 -13 -12 -13 -34 0 -19
-7 -41 -15 -50 -8 -8 -15 -21 -15 -28 0 -8 -9 -31 -19 -52 -11 -21 -17 -44
-14 -52 3 -9 -2 -14 -13 -14 -15 0 -16 -2 -5 -9 11 -7 9 -10 -7 -15 -14 -5
-19 -13 -17 -26 2 -11 0 -20 -5 -20 -5 0 -7 -7 -4 -15 4 -8 1 -15 -6 -15 -6 0
-8 -5 -5 -10 3 -6 2 -10 -3 -10 -9 0 -11 -9 -15 -55 -1 -14 -8 -25 -16 -25 -9
0 -12 -8 -9 -24 4 -18 0 -26 -15 -30 -19 -5 -34 3 -65 37 -9 9 -22 17 -29 17
-8 0 -17 10 -22 23 -5 12 -27 36 -50 52 -22 17 -41 33 -41 38 0 4 -7 7 -16 7
-8 0 -12 4 -9 10 3 5 -6 12 -20 16 -14 3 -25 13 -25 21 0 9 -6 13 -15 9 -11
-4 -15 2 -15 20 0 13 -7 27 -15 30 -13 5 -15 186 -15 1541 0 1524 0 1535 20
1540 11 3 17 9 14 14 -3 5 5 9 18 9 13 0 30 9 38 20 8 11 24 20 35 20 29 0 49
15 40 30 -5 9 -4 11 4 6 12 -8 81 13 81 25 0 4 12 10 26 13 18 5 24 12 20 22
-3 9 -2 12 5 9 14 -9 129 35 129 49 0 10 102 56 124 56 4 0 14 7 23 15 8 9 28
19 44 22 16 3 29 9 29 14 0 4 10 11 23 15 12 4 24 10 27 15 4 5 87 43 107 48
1 1 3 -437 3 -971z"/>
<path d="M6028 1333 c-16 -2 -28 -11 -28 -19 0 -8 -4 -14 -10 -14 -5 0 -7 -8
-3 -17 5 -15 3 -16 -8 -5 -21 20 -26 15 -47 -45 -40 -115 -62 -167 -72 -173
-5 -3 -20 -39 -34 -80 -26 -82 -47 -132 -57 -140 -4 -3 -19 -44 -34 -92 -15
-49 -32 -88 -36 -88 -5 0 -9 -10 -9 -22 0 -37 -11 -68 -24 -68 -7 0 -18 -23
-25 -50 -7 -28 -17 -50 -23 -50 -6 0 -8 -11 -6 -25 3 -14 2 -25 -2 -25 -4 0
-13 -21 -20 -47 -6 -26 -16 -51 -22 -54 -12 -8 -39 -72 -43 -104 -4 -31 -45
-115 -55 -115 -15 0 -12 -27 3 -33 7 -4 6 -6 -4 -6 -16 -1 -29 -20 -29 -42 0
-5 11 -4 25 1 16 6 25 6 25 -1 0 -6 8 -6 21 2 15 8 23 8 28 0 5 -7 15 -6 34 4
23 12 27 12 27 -1 0 -12 4 -12 20 -4 13 7 20 7 20 1 0 -7 9 -7 25 -1 17 7 25
6 25 -1 0 -7 10 -5 25 5 23 15 25 15 25 -1 0 -13 3 -14 11 -6 7 7 25 9 40 6
15 -3 42 0 59 5 18 7 28 7 25 2 -9 -15 49 -12 64 2 11 10 13 10 7 1 -10 -17
55 -17 73 -1 11 10 13 10 7 1 -10 -17 55 -17 73 -1 11 10 13 10 7 1 -6 -10
109 -13 559 -13 450 0 565 3 559 13 -6 10 -4 10 7 0 8 -8 41 -13 82 -13 52 0
66 3 61 13 -6 10 -4 10 7 0 7 -7 19 -13 27 -13 8 0 10 5 6 13 -4 6 3 3 16 -8
17 -15 24 -17 27 -7 4 10 8 10 19 1 11 -9 14 -8 14 6 0 17 1 17 20 0 12 -11
20 -13 20 -6 0 9 5 9 20 1 16 -9 20 -8 20 6 0 15 2 15 25 0 14 -9 25 -12 25
-6 0 8 6 7 20 0 14 -8 20 -8 20 0 0 8 6 8 20 0 16 -8 20 -8 20 4 0 13 3 13 28
1 16 -9 28 -11 30 -5 2 6 10 6 23 0 15 -8 19 -7 19 4 0 13 3 13 28 1 16 -9 28
-11 30 -5 2 6 10 6 22 0 12 -7 20 -6 22 1 2 7 12 7 31 0 15 -6 27 -6 27 -2 0
21 -13 41 -26 41 -8 0 -11 6 -8 15 3 8 -3 27 -14 42 -11 16 -23 45 -27 66 -4
20 -11 37 -15 37 -4 0 -5 11 -2 25 2 15 0 25 -7 25 -6 0 -11 7 -11 15 0 8 -4
15 -9 15 -5 0 -13 15 -16 32 -4 18 -12 36 -17 39 -5 3 -12 25 -15 48 -3 22 -9
41 -14 41 -4 0 -14 19 -21 42 -7 24 -18 49 -25 56 -7 7 -13 24 -13 38 0 13 -4
24 -10 24 -5 0 -10 11 -10 25 0 27 -44 155 -57 164 -4 3 -16 31 -26 61 -23 70
-60 164 -67 170 -14 13 -53 122 -65 183 -3 15 -10 25 -14 22 -5 -3 -7 4 -4 15
4 16 2 19 -13 14 -15 -5 -16 -4 -5 4 8 6 16 22 18 36 l4 26 -708 -2 c-389 0
-720 -3 -735 -5z m1290 -195 c2 -16 8 -28 13 -28 5 0 9 -9 9 -19 0 -11 4 -21
8 -23 8 -3 44 -93 63 -156 8 -27 14 -32 32 -28 12 3 16 3 10 0 -21 -10 -15
-53 12 -80 17 -17 25 -36 25 -59 0 -19 3 -35 8 -35 4 0 16 -29 26 -65 10 -35
22 -65 27 -67 4 -2 15 -32 24 -68 9 -36 21 -76 27 -90 25 -58 32 -70 40 -70 4
0 8 -8 8 -17 0 -10 7 -31 15 -47 21 -41 24 -91 5 -91 -8 0 -18 -4 -21 -9 -4
-4 -16 -3 -28 3 -15 8 -21 9 -21 1 0 -6 -5 -8 -11 -5 -16 11 -69 12 -69 3 0
-5 -9 -4 -20 2 -15 8 -20 8 -20 -1 0 -8 -5 -8 -16 2 -9 7 -18 9 -22 3 -9 -12
-1352 -12 -1352 0 0 5 -7 2 -17 -5 -13 -11 -17 -11 -21 -1 -3 10 -7 10 -18 1
-11 -9 -14 -9 -14 1 0 10 -3 10 -15 0 -12 -10 -15 -10 -15 0 0 9 -4 9 -17 -1
-13 -11 -17 -11 -21 -1 -3 10 -7 10 -18 1 -11 -9 -14 -9 -14 0 0 9 -5 9 -20 1
-13 -7 -20 -7 -20 -1 0 7 -9 7 -25 1 -14 -5 -25 -6 -25 -1 0 9 -55 5 -71 -4
-5 -4 -9 -2 -9 3 0 5 -11 8 -25 7 -27 -3 -30 5 -16 33 33 65 51 113 51 136 0
14 6 26 13 26 6 0 27 43 46 95 18 52 37 95 42 95 5 0 9 14 9 30 0 17 3 30 8
30 7 0 22 37 45 113 6 20 15 37 19 37 4 0 8 11 8 24 0 13 5 26 11 28 5 2 28
54 49 116 22 62 46 120 55 128 8 8 15 22 15 30 0 8 6 23 12 34 13 20 23 20
618 18 l605 -3 3 -27z"/>
</g>
</svg>
