<?xml version="1.0" standalone="no"?>
<!DOCTYPE svg PUBLIC "-//W3C//DTD SVG 20010904//EN"
 "http://www.w3.org/TR/2001/REC-SVG-20010904/DTD/svg10.dtd">
<svg version="1.0" xmlns="http://www.w3.org/2000/svg"
 width="736.000000pt" height="736.000000pt" viewBox="0 0 736.000000 736.000000"
 preserveAspectRatio="xMidYMid meet">
<metadata>
Created by potrace 1.16, written by Peter Selinger 2001-2019
</metadata>
<g transform="translate(0.000000,736.000000) scale(0.100000,-0.100000)"
fill="#000000" stroke="none">
<path d="M2768 6778 c-3 -7 76 -573 174 -1258 l178 -1245 266 -263 c176 -173
272 -262 284 -260 9 2 130 110 268 242 200 189 253 245 257 270 3 17 98 580
210 1251 169 1018 201 1222 190 1234 -7 7 -19 11 -27 9 -7 -3 -139 -231 -293
-507 l-279 -501 -295 2 -296 3 -295 517 c-244 427 -299 517 -316 518 -12 0
-24 -6 -26 -12z m362 -661 l245 -427 329 2 329 3 227 408 c125 224 234 417
243 430 9 14 -51 -371 -177 -1123 l-191 -1145 -115 -110 c-63 -61 -166 -159
-228 -220 -62 -60 -116 -111 -120 -112 -4 -1 -116 105 -250 235 l-243 237
-165 1140 c-90 627 -164 1147 -164 1155 0 18 -17 47 280 -473z"/>
<path d="M3365 5318 c-3 -7 64 -222 148 -478 146 -443 154 -465 177 -465 23 0
31 20 172 465 82 255 146 470 143 477 -7 19 -633 19 -640 1z m569 -53 c-4 -28
-239 -755 -244 -755 -10 0 -252 741 -246 757 5 12 40 14 248 11 155 -2 242 -7
242 -13z"/>
<path d="M763 6518 c-7 -9 33 -375 123 -1135 l132 -1123 273 -387 c150 -214
341 -485 425 -603 217 -308 1300 -1848 1727 -2455 124 -177 174 -241 190 -242
18 -2 93 94 452 589 237 325 524 720 639 877 115 157 323 441 461 631 138 190
345 473 460 630 114 157 308 422 430 590 l222 305 152 1120 c83 616 153 1128
155 1138 3 9 -3 24 -11 33 -12 12 -18 12 -30 2 -9 -7 -119 -151 -245 -320
l-229 -308 -62 -18 c-34 -10 -358 -106 -721 -213 -542 -160 -660 -198 -667
-214 -10 -24 -69 -396 -69 -437 0 -16 6 -31 14 -34 13 -5 245 53 1099 273 97
26 180 43 183 40 8 -8 -13 -178 -23 -188 -5 -4 -300 -87 -658 -184 -357 -97
-654 -180 -659 -185 -5 -5 -14 -77 -20 -160 -8 -121 -7 -153 3 -159 7 -5 282
59 644 150 347 87 633 156 635 155 1 -2 -3 -50 -10 -107 l-13 -103 -605 -158
c-637 -167 -701 -189 -809 -270 -30 -23 -100 -82 -156 -132 -298 -268 -510
-451 -520 -451 -7 0 -143 123 -303 273 -160 151 -315 292 -344 314 -102 76
-199 112 -793 293 -319 97 -583 181 -586 187 -4 6 -10 42 -13 82 -4 39 -10 81
-13 94 -3 14 -1 22 8 22 7 0 284 -80 616 -177 435 -127 607 -173 614 -166 13
13 -29 327 -46 348 -7 9 -1086 343 -1266 392 -13 4 -19 27 -28 95 -7 50 -10
92 -8 95 3 2 281 -77 619 -177 338 -99 624 -180 636 -180 19 0 22 6 22 38 0
63 -48 434 -57 442 -4 5 -330 107 -723 226 l-715 217 -248 324 c-137 177 -255
323 -262 323 -7 0 -17 -6 -22 -12z m490 -675 c7 -7 257 -87 557 -178 300 -91
620 -188 711 -216 l166 -51 21 -181 c12 -99 20 -182 18 -184 -2 -3 -281 77
-619 176 -337 100 -623 181 -634 181 -12 0 -23 -6 -25 -12 -7 -18 29 -279 39
-288 4 -5 134 -46 288 -93 154 -47 440 -133 636 -193 l357 -108 16 -105 c9
-59 16 -113 16 -122 0 -14 -23 -10 -152 28 -681 202 -1063 310 -1075 306 -17
-7 -16 -31 2 -183 9 -69 21 -130 28 -137 7 -6 111 -41 232 -78 608 -185 965
-296 1009 -314 98 -43 188 -114 435 -347 376 -353 379 -356 399 -352 17 3 357
297 592 512 90 82 201 158 273 185 29 10 324 90 655 177 331 87 607 161 614
165 16 10 45 306 31 320 -8 8 -192 -35 -648 -149 l-638 -161 7 76 c3 42 6 90
6 108 l0 32 658 178 c361 98 662 184 668 191 6 7 18 75 28 150 13 112 14 140
4 150 -11 11 -136 -19 -652 -152 -351 -91 -640 -164 -641 -162 -4 4 53 369 57
373 2 1 129 40 283 85 154 45 469 138 700 206 231 68 428 127 437 131 9 5 108
130 218 278 180 241 201 266 196 230 -3 -22 -35 -256 -71 -520 -36 -264 -81
-592 -100 -730 -19 -137 -53 -385 -75 -549 -34 -250 -45 -305 -63 -330 -21
-31 -484 -666 -857 -1176 -531 -727 -959 -1314 -1393 -1910 -170 -234 -315
-431 -322 -438 -10 -11 -27 8 -92 100 -44 62 -210 298 -369 523 -158 226 -356
507 -439 625 -83 118 -212 301 -285 405 -73 105 -214 305 -313 445 -99 140
-242 343 -317 450 -75 107 -273 388 -440 624 -166 236 -306 439 -310 450 -5
12 -18 102 -29 201 -12 99 -66 560 -121 1025 -55 465 -100 854 -100 864 0 10
93 -103 206 -251 113 -147 211 -273 217 -280z"/>
<path d="M1633 3874 c-10 -26 7 -47 172 -221 89 -92 271 -285 405 -428 135
-143 268 -284 297 -315 29 -30 137 -146 240 -257 103 -111 195 -202 204 -202
9 -1 21 5 26 12 5 6 101 202 213 434 216 450 213 443 152 458 -15 3 -401 125
-858 271 -458 145 -835 264 -838 264 -4 0 -9 -7 -13 -16z m912 -329 c413 -131
754 -242 759 -246 6 -5 -68 -169 -175 -390 l-184 -382 -45 50 c-25 28 -110
120 -190 204 -80 85 -296 314 -480 509 -183 195 -365 388 -404 429 -45 46 -64
72 -51 69 11 -3 358 -112 770 -243z"/>
<path d="M5505 3785 c-77 -24 -453 -136 -835 -250 -382 -114 -703 -212 -712
-217 -10 -5 -18 -15 -18 -22 0 -7 92 -200 205 -429 154 -314 210 -417 223
-417 15 0 1292 1298 1315 1337 9 16 -9 43 -27 42 -6 0 -74 -20 -151 -44z
m-331 -442 c-208 -213 -473 -483 -587 -600 l-208 -212 -15 27 c-38 70 -354
715 -352 717 2 2 345 105 763 230 418 124 762 228 764 231 2 2 6 2 9 -1 3 -2
-166 -179 -374 -392z"/>
<path d="M1034 3776 c-3 -8 15 -270 40 -583 25 -312 67 -824 92 -1138 29 -360
50 -574 57 -582 11 -11 109 -55 707 -313 1051 -454 1346 -580 1361 -580 9 0
20 7 23 16 9 23 -2231 3194 -2256 3194 -10 0 -21 -6 -24 -14z m1210 -1741
c524 -742 952 -1351 951 -1353 -2 -3 -175 71 -930 398 -104 45 -368 159 -585
252 -217 94 -399 173 -403 177 -7 7 -18 119 -52 546 -8 110 -24 308 -35 440
-11 132 -29 355 -40 495 -12 140 -27 333 -35 428 -23 266 -30 257 80 101 52
-74 524 -741 1049 -1484z"/>
<path d="M5329 2493 c-502 -698 -960 -1333 -1018 -1413 -296 -410 -330 -460
-325 -475 4 -8 14 -15 24 -15 15 0 476 186 1724 697 170 70 314 132 321 139 7
7 21 108 35 256 12 133 62 648 110 1143 54 563 83 907 78 918 -5 9 -15 17 -22
17 -8 0 -425 -570 -927 -1267z m859 835 c-15 -156 -45 -474 -68 -708 -22 -234
-42 -445 -45 -470 -3 -25 -18 -189 -35 -365 -17 -175 -32 -320 -33 -321 -1 -1
-123 -51 -272 -112 -148 -61 -573 -235 -944 -386 -371 -152 -676 -274 -678
-272 -3 2 96 143 218 312 229 319 572 794 1004 1394 376 521 551 764 718 997
84 117 154 213 157 213 3 0 -6 -127 -22 -282z"/>
</g>
</svg>
